<svg width="50" height="50" viewBox="0 0 50 50" fill="none" xmlns="http://www.w3.org/2000/svg">
<circle cx="25" cy="25" r="25" fill="#00AAFF"/>
<path d="M25.5 37.4922C23.8672 37.4922 22.3281 37.1797 20.8828 36.5547C19.4453 35.9297 18.1758 35.0664 17.0742 33.9648C15.9727 32.8633 15.1094 31.5938 14.4844 30.1562C13.8594 28.7109 13.5469 27.1719 13.5469 25.5391C13.5469 23.9062 13.8594 22.3711 14.4844 20.9336C15.1094 19.4883 15.9688 18.2148 17.0625 17.1133C18.1641 16.0117 19.4336 15.1484 20.8711 14.5234C22.3164 13.8984 23.8555 13.5859 25.4883 13.5859C27.1211 13.5859 28.6602 13.8984 30.1055 14.5234C31.5508 15.1484 32.8242 16.0117 33.9258 17.1133C35.0273 18.2148 35.8906 19.4883 36.5156 20.9336C37.1406 22.3711 37.4531 23.9062 37.4531 25.5391C37.4531 27.1719 37.1406 28.7109 36.5156 30.1562C35.8906 31.5938 35.0273 32.8633 33.9258 33.9648C32.8242 35.0664 31.5508 35.9297 30.1055 36.5547C28.668 37.1797 27.1328 37.4922 25.5 37.4922ZM25.5 32.4414C25.6641 32.4414 25.8008 32.3906 25.9102 32.2891C26.0195 32.1797 26.0742 32.0391 26.0742 31.8672V31.0234C27.0117 30.9297 27.8008 30.6211 28.4414 30.0977C29.082 29.5664 29.4023 28.8438 29.4023 27.9297C29.4023 27.1094 29.1367 26.4492 28.6055 25.9492C28.0742 25.4492 27.2852 25.1055 26.2383 24.918L26.0742 24.8828V21.5195C26.5039 21.5977 26.8633 21.7617 27.1523 22.0117C27.4492 22.2617 27.6602 22.5898 27.7852 22.9961C27.918 23.3945 28.1641 23.5938 28.5234 23.5938C28.7344 23.5938 28.9062 23.5273 29.0391 23.3945C29.1719 23.2617 29.2383 23.0898 29.2383 22.8789C29.2383 22.8164 29.2305 22.7539 29.2148 22.6914C29.207 22.6289 29.1953 22.5664 29.1797 22.5039C29.0156 21.8555 28.6484 21.3203 28.0781 20.8984C27.5156 20.4688 26.8477 20.2109 26.0742 20.125V19.293C26.0742 19.1211 26.0195 18.9844 25.9102 18.8828C25.8008 18.7734 25.6641 18.7188 25.5 18.7188C25.3359 18.7188 25.1992 18.7734 25.0898 18.8828C24.9805 18.9844 24.9258 19.1211 24.9258 19.293V20.125C24.0117 20.2266 23.2578 20.5469 22.6641 21.0859C22.0781 21.6172 21.7852 22.2969 21.7852 23.125C21.7852 23.8906 22.043 24.5117 22.5586 24.9883C23.0742 25.457 23.8359 25.8125 24.8438 26.0547L24.9258 26.0781V29.6406C24.3867 29.5625 23.957 29.3828 23.6367 29.1016C23.3242 28.8203 23.1172 28.4805 23.0156 28.082C22.9453 27.8711 22.8477 27.7188 22.7227 27.625C22.5977 27.5234 22.4453 27.4727 22.2656 27.4727C22.0625 27.4727 21.8945 27.5391 21.7617 27.6719C21.6289 27.8047 21.5625 27.9766 21.5625 28.1875C21.5625 28.25 21.5664 28.3125 21.5742 28.375C21.5898 28.4375 21.6055 28.5 21.6211 28.5625C21.793 29.2656 22.1836 29.8281 22.793 30.25C23.4023 30.6719 24.1133 30.9219 24.9258 31V31.8672C24.9258 32.0391 24.9805 32.1797 25.0898 32.2891C25.1992 32.3906 25.3359 32.4414 25.5 32.4414ZM24.9258 24.5781L24.8438 24.5547C24.3047 24.3906 23.9102 24.1875 23.6602 23.9453C23.4102 23.7031 23.2852 23.4023 23.2852 23.043C23.2852 22.6758 23.4297 22.3516 23.7188 22.0703C24.0156 21.7891 24.418 21.6055 24.9258 21.5195V24.5781ZM26.0742 26.3594L26.332 26.4297C26.918 26.5859 27.3242 26.793 27.5508 27.0508C27.7852 27.3086 27.9023 27.6289 27.9023 28.0117C27.9023 28.4336 27.75 28.793 27.4453 29.0898C27.1484 29.3867 26.6914 29.5703 26.0742 29.6406V26.3594Z" fill="white"/>
</svg>
