<svg width="738" height="470" viewBox="0 0 738 470" fill="none" xmlns="http://www.w3.org/2000/svg">
<g clip-path="url(#clip0_201_3337)">
<path d="M369 469.229C572.793 469.229 738 459.474 738 447.44C738 435.407 572.793 425.653 369 425.653C165.207 425.653 0 435.407 0 447.44C0 459.474 165.207 469.229 369 469.229Z" fill="#F5F5F5"/>
<path d="M432.203 0.305542H306.558V448.846H432.203V0.305542Z" fill="#407BFF"/>
<path opacity="0.5" d="M432.622 0.305542H338.931V448.846H432.622V0.305542Z" fill="black"/>
<path d="M596.368 114.327H470.723V448.865H596.368V114.327Z" fill="#407BFF"/>
<path opacity="0.3" d="M596.368 113.788H502.677V448.846H596.368V113.788Z" fill="black"/>
<path d="M267.277 59.9338H141.632V448.846H267.277V59.9338Z" fill="#407BFF"/>
<path opacity="0.4" d="M267.277 59.2794H173.586V448.865H267.277V59.2794Z" fill="black"/>
<path d="M190.542 449.211C190.371 453.311 203.179 457.18 219.147 457.853C235.114 458.546 248.208 455.775 248.379 451.694C248.55 447.594 235.742 443.726 219.775 443.052C203.807 442.359 190.714 445.131 190.542 449.211Z" fill="#407BFF"/>
<path d="M190.827 441.791L190.516 449.195L248.358 451.677L248.668 444.274L190.827 441.791Z" fill="#407BFF"/>
<path d="M190.847 441.801C190.676 445.901 203.484 449.769 219.451 450.443C235.419 451.136 248.512 448.364 248.684 444.284C248.855 440.184 236.047 436.315 220.079 435.642C204.112 434.949 191.018 437.721 190.847 441.801Z" fill="#407BFF"/>
<path opacity="0.4" d="M190.847 441.801C190.676 445.901 203.484 449.769 219.451 450.443C235.419 451.136 248.512 448.364 248.684 444.284C248.855 440.184 236.047 436.315 220.079 435.642C204.112 434.949 191.018 437.721 190.847 441.801Z" fill="white"/>
<path d="M194.539 441.686C194.539 441.917 194.615 442.224 194.786 442.417C196.728 440.011 207.29 438.606 219.927 439.145C232.602 439.684 243.012 442.013 244.706 444.573C244.877 444.38 245.01 444.111 245.01 443.86C245.125 441.089 233.934 438.317 219.984 437.721C206.072 437.124 194.653 438.933 194.539 441.705V441.686Z" fill="#407BFF"/>
<path opacity="0.4" d="M194.539 441.686C194.539 441.917 194.615 442.224 194.786 442.417C196.728 440.011 207.29 438.606 219.927 439.145C232.602 439.684 243.012 442.013 244.706 444.573C244.877 444.38 245.01 444.111 245.01 443.86C245.125 441.089 233.934 438.317 219.984 437.721C206.072 437.124 194.653 438.933 194.539 441.705V441.686Z" fill="#407BFF"/>
<path opacity="0.4" d="M194.787 442.417C196.518 444.977 206.929 447.286 219.566 447.845C232.24 448.384 242.803 446.979 244.706 444.573C243.012 442.013 232.602 439.703 219.927 439.145C207.29 438.606 196.728 440.011 194.787 442.417Z" fill="#407BFF"/>
<path d="M184.471 437.99C184.3 442.09 197.108 445.958 213.076 446.632C229.043 447.325 242.137 444.553 242.308 440.473C242.479 436.373 229.671 432.505 213.704 431.831C197.736 431.138 184.643 433.91 184.471 437.99Z" fill="#407BFF"/>
<path d="M184.794 430.59L184.483 437.994L242.324 440.476L242.635 433.073L184.794 430.59Z" fill="#407BFF"/>
<path d="M184.776 430.58C184.605 434.68 197.413 438.548 213.38 439.222C229.347 439.915 242.441 437.143 242.612 433.063C242.784 428.963 229.975 425.094 214.008 424.421C198.041 423.728 184.947 426.499 184.776 430.58Z" fill="#407BFF"/>
<path opacity="0.4" d="M184.776 430.58C184.605 434.68 197.413 438.548 213.38 439.222C229.347 439.915 242.441 437.143 242.612 433.063C242.784 428.963 229.975 425.094 214.008 424.421C198.041 423.728 184.947 426.499 184.776 430.58Z" fill="white"/>
<path d="M188.468 430.464C188.468 430.695 188.544 431.003 188.715 431.196C190.657 428.79 201.219 427.385 213.856 427.924C226.531 428.463 236.941 430.792 238.635 433.351C238.806 433.159 238.939 432.889 238.939 432.639C239.054 429.868 227.863 427.096 213.913 426.499C200.001 425.903 188.582 427.712 188.468 430.484V430.464Z" fill="#407BFF"/>
<path opacity="0.4" d="M188.468 430.464C188.468 430.695 188.544 431.003 188.715 431.196C190.657 428.79 201.219 427.385 213.856 427.924C226.531 428.463 236.941 430.792 238.635 433.351C238.806 433.159 238.939 432.889 238.939 432.639C239.054 429.868 227.863 427.096 213.913 426.499C200.001 425.903 188.582 427.712 188.468 430.484V430.464Z" fill="#407BFF"/>
<path opacity="0.4" d="M188.715 431.196C190.447 433.756 200.857 436.065 213.494 436.623C226.169 437.162 236.732 435.757 238.635 433.351C236.941 430.792 226.531 428.482 213.856 427.924C201.219 427.385 190.657 428.79 188.715 431.196Z" fill="#407BFF"/>
<path d="M185.252 424.478C185.08 428.578 197.889 432.447 213.856 433.12C229.823 433.813 242.917 431.042 243.088 426.961C243.259 422.862 230.451 418.993 214.484 418.319C198.517 417.626 185.423 420.398 185.252 424.478Z" fill="#407BFF"/>
<path d="M185.562 417.084L185.251 424.487L243.093 426.97L243.403 419.566L185.562 417.084Z" fill="#407BFF"/>
<path d="M185.556 417.068C185.385 421.168 198.193 425.037 214.16 425.71C230.128 426.403 243.221 423.632 243.393 419.551C243.564 415.451 230.756 411.583 214.788 410.909C198.821 410.216 185.727 412.988 185.556 417.068Z" fill="#407BFF"/>
<path opacity="0.4" d="M185.556 417.068C185.385 421.168 198.193 425.037 214.16 425.71C230.128 426.403 243.221 423.632 243.393 419.551C243.564 415.451 230.756 411.583 214.788 410.909C198.821 410.216 185.727 412.988 185.556 417.068Z" fill="white"/>
<path d="M189.248 416.953C189.248 417.184 189.324 417.492 189.496 417.684C191.437 415.278 201.999 413.873 214.636 414.412C227.311 414.951 237.721 417.28 239.415 419.84C239.586 419.647 239.72 419.378 239.72 419.128C239.834 416.356 228.643 413.584 214.693 412.988C200.781 412.391 189.362 414.2 189.248 416.972V416.953Z" fill="#407BFF"/>
<path opacity="0.4" d="M189.248 416.953C189.248 417.184 189.324 417.492 189.496 417.684C191.437 415.278 201.999 413.873 214.636 414.412C227.311 414.951 237.721 417.28 239.415 419.84C239.586 419.647 239.72 419.378 239.72 419.128C239.834 416.356 228.643 413.584 214.693 412.988C200.781 412.391 189.362 414.2 189.248 416.972V416.953Z" fill="#407BFF"/>
<path opacity="0.4" d="M189.496 417.684C191.227 420.244 201.638 422.554 214.274 423.112C226.949 423.651 237.512 422.246 239.415 419.84C237.721 417.28 227.311 414.97 214.636 414.412C201.999 413.873 191.437 415.278 189.496 417.684Z" fill="#407BFF"/>
<path d="M179.181 413.257C179.01 417.357 191.818 421.226 207.785 421.899C223.752 422.592 236.846 419.821 237.017 415.74C237.189 411.64 224.38 407.772 208.413 407.098C192.446 406.405 179.352 409.177 179.181 413.257Z" fill="#407BFF"/>
<path d="M179.472 405.824L179.161 413.228L237.003 415.71L237.314 408.306L179.472 405.824Z" fill="#407BFF"/>
<path d="M179.485 405.866C179.314 409.966 192.122 413.835 208.09 414.508C224.057 415.201 237.151 412.43 237.322 408.349C237.493 404.249 224.685 400.381 208.718 399.707C192.75 399.014 179.657 401.786 179.485 405.866Z" fill="#407BFF"/>
<path opacity="0.4" d="M179.485 405.866C179.314 409.966 192.122 413.835 208.09 414.508C224.057 415.201 237.151 412.43 237.322 408.349C237.493 404.249 224.685 400.381 208.718 399.707C192.75 399.014 179.657 401.786 179.485 405.866Z" fill="white"/>
<path d="M183.177 405.732C183.177 405.962 183.254 406.27 183.425 406.463C185.366 404.057 195.929 402.652 208.565 403.191C221.24 403.73 231.65 406.059 233.344 408.619C233.516 408.426 233.649 408.157 233.649 407.906C233.763 405.135 222.573 402.363 208.622 401.767C194.711 401.17 183.292 402.979 183.177 405.751V405.732Z" fill="#407BFF"/>
<path opacity="0.4" d="M183.177 405.732C183.177 405.962 183.254 406.27 183.425 406.463C185.366 404.057 195.929 402.652 208.565 403.191C221.24 403.73 231.65 406.059 233.344 408.619C233.516 408.426 233.649 408.157 233.649 407.906C233.763 405.135 222.573 402.363 208.622 401.767C194.711 401.17 183.292 402.979 183.177 405.751V405.732Z" fill="#407BFF"/>
<path opacity="0.4" d="M183.425 406.463C185.157 409.023 195.567 411.332 208.204 411.891C220.879 412.43 231.441 411.025 233.344 408.619C231.65 406.059 221.24 403.749 208.565 403.191C195.928 402.652 185.366 404.057 183.425 406.463Z" fill="#407BFF"/>
<path d="M188.449 403.768C188.278 407.868 201.086 411.737 217.053 412.41C233.021 413.103 246.114 410.332 246.286 406.251C246.457 402.151 233.649 398.283 217.681 397.609C201.714 396.916 188.62 399.688 188.449 403.768Z" fill="#407BFF"/>
<path d="M188.761 396.364L188.45 403.767L246.292 406.25L246.603 398.846L188.761 396.364Z" fill="#407BFF"/>
<path d="M188.773 396.358C188.601 400.458 201.41 404.326 217.377 405C233.344 405.693 246.438 402.921 246.609 398.841C246.78 394.741 233.972 390.873 218.005 390.199C202.038 389.506 188.944 392.278 188.773 396.358Z" fill="#407BFF"/>
<path opacity="0.4" d="M188.773 396.358C188.601 400.458 201.41 404.326 217.377 405C233.344 405.693 246.438 402.921 246.609 398.841C246.78 394.741 233.972 390.873 218.005 390.199C202.038 389.506 188.944 392.278 188.773 396.358Z" fill="white"/>
<path d="M192.446 396.223C192.446 396.454 192.522 396.762 192.693 396.955C194.634 394.549 205.197 393.144 217.834 393.683C230.509 394.222 240.919 396.551 242.613 399.11C242.784 398.918 242.917 398.648 242.917 398.398C243.031 395.627 231.841 392.855 217.891 392.258C203.979 391.662 192.56 393.471 192.446 396.243V396.223Z" fill="#407BFF"/>
<path opacity="0.4" d="M192.446 396.223C192.446 396.454 192.522 396.762 192.693 396.955C194.634 394.549 205.197 393.144 217.834 393.683C230.509 394.222 240.919 396.551 242.613 399.11C242.784 398.918 242.917 398.648 242.917 398.398C243.031 395.627 231.841 392.855 217.891 392.258C203.979 391.662 192.56 393.471 192.446 396.243V396.223Z" fill="#407BFF"/>
<path opacity="0.4" d="M192.693 396.955C194.425 399.515 204.835 401.824 217.472 402.382C230.147 402.921 240.709 401.516 242.613 399.11C240.919 396.551 230.509 394.241 217.834 393.683C205.197 393.144 194.634 394.549 192.693 396.955Z" fill="#407BFF"/>
<path d="M182.378 392.547C182.207 396.647 195.015 400.515 210.982 401.189C226.95 401.882 240.043 399.11 240.215 395.03C240.386 390.93 227.578 387.062 211.61 386.388C195.643 385.695 182.549 388.467 182.378 392.547Z" fill="#407BFF"/>
<path d="M182.69 385.123L182.379 392.527L240.221 395.009L240.532 387.606L182.69 385.123Z" fill="#407BFF"/>
<path d="M182.683 385.137C182.511 389.237 195.319 393.105 211.287 393.779C227.254 394.472 240.348 391.7 240.519 387.62C240.69 383.52 227.882 379.651 211.915 378.978C195.947 378.285 182.854 381.056 182.683 385.137Z" fill="#407BFF"/>
<path opacity="0.4" d="M182.683 385.137C182.511 389.237 195.319 393.105 211.287 393.779C227.254 394.472 240.348 391.7 240.519 387.62C240.69 383.52 227.882 379.651 211.915 378.978C195.947 378.285 182.854 381.056 182.683 385.137Z" fill="white"/>
<path d="M186.375 385.002C186.375 385.233 186.451 385.541 186.622 385.734C188.563 383.328 199.126 381.923 211.763 382.461C224.438 383 234.848 385.329 236.542 387.889C236.713 387.697 236.846 387.427 236.846 387.177C236.96 384.405 225.77 381.634 211.82 381.037C197.908 380.441 186.489 382.25 186.375 385.021V385.002Z" fill="#407BFF"/>
<path opacity="0.4" d="M186.375 385.002C186.375 385.233 186.451 385.541 186.622 385.734C188.563 383.328 199.126 381.923 211.763 382.461C224.438 383 234.848 385.329 236.542 387.889C236.713 387.697 236.846 387.427 236.846 387.177C236.96 384.405 225.77 381.634 211.82 381.037C197.908 380.441 186.489 382.25 186.375 385.021V385.002Z" fill="#407BFF"/>
<path opacity="0.4" d="M186.622 385.734C188.354 388.293 198.764 390.603 211.401 391.161C224.076 391.7 234.638 390.295 236.541 387.889C234.848 385.329 224.437 383.02 211.763 382.461C199.126 381.923 188.563 383.328 186.622 385.734Z" fill="#407BFF"/>
<path d="M104.273 445.631C104.102 449.731 116.91 453.6 132.877 454.273C148.845 454.966 161.938 452.195 162.11 448.114C162.281 444.014 149.473 440.146 133.505 439.472C117.538 438.779 104.444 441.551 104.273 445.631Z" fill="#407BFF"/>
<path d="M104.595 438.212L104.284 445.616L162.126 448.098L162.436 440.695L104.595 438.212Z" fill="#407BFF"/>
<path d="M104.597 438.221C104.425 442.321 117.234 446.189 133.201 446.863C149.168 447.556 162.262 444.784 162.433 440.704C162.604 436.604 149.796 432.736 133.829 432.062C117.862 431.369 104.768 434.141 104.597 438.221Z" fill="#407BFF"/>
<path opacity="0.4" d="M104.597 438.221C104.425 442.321 117.234 446.189 133.201 446.863C149.168 447.556 162.262 444.784 162.433 440.704C162.604 436.604 149.796 432.736 133.829 432.062C117.862 431.369 104.768 434.141 104.597 438.221Z" fill="white"/>
<path d="M108.289 438.086C108.289 438.317 108.365 438.625 108.536 438.818C110.477 436.412 121.04 435.007 133.677 435.546C146.352 436.085 156.762 438.413 158.456 440.973C158.627 440.781 158.76 440.511 158.76 440.261C158.874 437.49 147.684 434.718 133.734 434.121C119.822 433.525 108.403 435.334 108.289 438.106V438.086Z" fill="#407BFF"/>
<path opacity="0.4" d="M108.289 438.086C108.289 438.317 108.365 438.625 108.536 438.818C110.477 436.412 121.04 435.007 133.677 435.546C146.352 436.085 156.762 438.413 158.456 440.973C158.627 440.781 158.76 440.511 158.76 440.261C158.874 437.49 147.684 434.718 133.734 434.121C119.822 433.525 108.403 435.334 108.289 438.106V438.086Z" fill="#407BFF"/>
<path opacity="0.4" d="M108.536 438.818C110.268 441.378 120.678 443.687 133.315 444.245C145.99 444.784 156.552 443.379 158.456 440.973C156.762 438.413 146.352 436.104 133.677 435.546C121.04 435.007 110.477 436.412 108.536 438.818Z" fill="#407BFF"/>
<path d="M129.433 438.413C128.5 442.398 140.338 448.653 155.886 452.406C171.435 456.14 184.795 455.948 185.747 451.964C186.679 447.979 174.842 441.724 159.293 437.971C143.744 434.237 130.365 434.429 129.433 438.413Z" fill="#407BFF"/>
<path d="M131.129 431.225L129.433 438.434L185.755 451.983L187.451 444.774L131.129 431.225Z" fill="#407BFF"/>
<path d="M131.146 431.196C130.213 435.18 142.051 441.435 157.599 445.189C173.148 448.923 186.508 448.73 187.459 444.746C188.392 440.762 176.554 434.506 161.006 430.753C145.457 427.019 132.078 427.212 131.146 431.196Z" fill="#407BFF"/>
<path opacity="0.4" d="M131.146 431.196C130.213 435.18 142.051 441.435 157.599 445.189C173.148 448.923 186.508 448.73 187.459 444.746C188.392 440.762 176.554 434.506 161.006 430.753C145.457 427.019 132.078 427.212 131.146 431.196Z" fill="white"/>
<path d="M134.78 431.773C134.723 432.004 134.761 432.312 134.876 432.543C137.216 430.561 147.874 431.196 160.168 434.16C172.501 437.124 182.302 441.397 183.482 444.245C183.691 444.091 183.862 443.841 183.919 443.61C184.548 440.916 174.08 436.027 160.511 432.774C146.96 429.521 135.408 429.098 134.78 431.792V431.773Z" fill="#407BFF"/>
<path opacity="0.4" d="M134.78 431.773C134.723 432.004 134.761 432.312 134.876 432.543C137.216 430.561 147.874 431.196 160.168 434.16C172.501 437.124 182.302 441.397 183.482 444.245C183.691 444.091 183.862 443.841 183.919 443.61C184.548 440.916 174.08 436.027 160.511 432.774C146.96 429.521 135.408 429.098 134.78 431.792V431.773Z" fill="#407BFF"/>
<path opacity="0.4" d="M134.895 432.543C136.113 435.392 145.895 439.665 158.208 442.629C170.54 445.593 181.198 446.247 183.501 444.245C182.321 441.397 172.52 437.124 160.187 434.16C147.893 431.196 137.235 430.561 134.895 432.543Z" fill="#407BFF"/>
<path d="M202.856 390.103C217.256 390.103 228.929 378.297 228.929 363.734C228.929 349.171 217.256 337.365 202.856 337.365C188.456 337.365 176.783 349.171 176.783 363.734C176.783 378.297 188.456 390.103 202.856 390.103Z" fill="#407BFF"/>
<path d="M205.977 390.103C220.377 390.103 232.05 378.297 232.05 363.734C232.05 349.171 220.377 337.365 205.977 337.365C191.577 337.365 179.904 349.171 179.904 363.734C179.904 378.297 191.577 390.103 205.977 390.103Z" fill="#407BFF"/>
<path opacity="0.5" d="M205.977 390.103C220.377 390.103 232.05 378.297 232.05 363.734C232.05 349.171 220.377 337.365 205.977 337.365C191.577 337.365 179.904 349.171 179.904 363.734C179.904 378.297 191.577 390.103 205.977 390.103Z" fill="white"/>
<path d="M219.777 377.709C227.402 369.997 227.402 357.493 219.777 349.781C212.151 342.069 199.788 342.069 192.163 349.781C184.537 357.493 184.537 369.997 192.163 377.709C199.788 385.421 212.151 385.421 219.777 377.709Z" fill="#407BFF"/>
<path opacity="0.3" d="M213.856 370.259C212.239 371.952 210.24 372.761 207.766 372.761C203.998 372.761 200.858 370.663 199.602 367.391H210.107V365.12H199.05C199.012 364.792 199.012 364.446 199.012 364.08C199.012 363.715 199.012 363.387 199.05 363.041H210.107V360.77H199.602C200.858 357.478 203.998 355.4 207.766 355.4C210.24 355.4 212.239 356.208 213.856 357.883L214.161 358.191L216.273 356.093L215.988 355.785C213.97 353.591 211.097 352.436 207.633 352.436C202.171 352.436 197.641 355.765 196.252 360.77H192.541V363.041H195.852C195.833 363.368 195.814 363.715 195.814 364.08C195.814 364.446 195.814 364.773 195.852 365.12H192.541V367.391H196.252C197.641 372.395 202.171 375.725 207.633 375.725C211.078 375.725 213.951 374.551 215.988 372.337L216.273 372.029L214.161 369.931L213.856 370.259Z" fill="white"/>
<path d="M571.247 452.83C571.095 456.929 558.039 459.778 542.053 459.181C526.085 458.604 513.239 454.812 513.391 450.713C513.544 446.613 526.599 443.764 542.586 444.342C558.553 444.919 571.399 448.711 571.247 452.81V452.83Z" fill="#407BFF"/>
<path d="M513.63 443.286L513.368 450.691L571.225 452.786L571.487 445.38L513.63 443.286Z" fill="#407BFF"/>
<path d="M571.513 445.4C571.361 449.5 558.306 452.349 542.319 451.771C526.352 451.194 513.506 447.402 513.658 443.302C513.81 439.203 526.866 436.354 542.852 436.951C558.819 437.528 571.666 441.32 571.513 445.42V445.4Z" fill="#407BFF"/>
<path opacity="0.4" d="M571.513 445.4C571.361 449.5 558.306 452.349 542.319 451.771C526.352 451.194 513.506 447.402 513.658 443.302C513.81 439.203 526.866 436.354 542.852 436.951C558.819 437.528 571.666 441.32 571.513 445.42V445.4Z" fill="white"/>
<path d="M567.84 444.996C567.84 445.227 567.726 445.516 567.536 445.708C565.785 443.148 555.356 440.916 542.719 440.454C530.044 439.992 519.481 441.474 517.597 443.899C517.426 443.706 517.331 443.418 517.35 443.168C517.445 440.396 528.826 438.51 542.776 439.01C556.688 439.511 567.935 442.224 567.84 444.996Z" fill="#407BFF"/>
<path opacity="0.4" d="M567.84 444.996C567.84 445.227 567.726 445.516 567.536 445.708C565.785 443.148 555.356 440.916 542.719 440.454C530.044 439.992 519.481 441.474 517.597 443.899C517.426 443.706 517.331 443.418 517.35 443.168C517.445 440.396 528.826 438.51 542.776 439.01C556.688 439.511 567.935 442.224 567.84 444.996Z" fill="#407BFF"/>
<path opacity="0.4" d="M567.536 445.689C565.614 448.114 555.051 449.596 542.414 449.134C529.739 448.672 519.31 446.42 517.597 443.88C519.482 441.455 530.044 439.973 542.719 440.434C555.356 440.896 565.785 443.129 567.536 445.689Z" fill="#407BFF"/>
<path d="M578.174 442.109C578.022 446.209 564.967 449.057 548.98 448.461C533.013 447.883 520.167 444.091 520.319 439.992C520.471 435.892 533.527 433.043 549.513 433.621C565.48 434.198 578.327 437.99 578.174 442.09V442.109Z" fill="#407BFF"/>
<path d="M520.621 432.646L520.357 440.052L578.213 442.157L578.477 434.751L520.621 432.646Z" fill="#407BFF"/>
<path d="M578.441 434.699C578.289 438.798 565.233 441.647 549.247 441.07C533.279 440.492 520.433 436.701 520.585 432.601C520.738 428.501 533.793 425.653 549.78 426.23C565.747 426.807 578.593 430.599 578.441 434.699Z" fill="#407BFF"/>
<path opacity="0.4" d="M578.441 434.699C578.289 438.798 565.233 441.647 549.247 441.07C533.279 440.492 520.433 436.701 520.585 432.601C520.738 428.501 533.793 425.653 549.78 426.23C565.747 426.807 578.593 430.599 578.441 434.699Z" fill="white"/>
<path d="M574.768 434.295C574.768 434.525 574.654 434.814 574.463 435.007C572.712 432.447 562.283 430.214 549.646 429.752C536.971 429.29 526.409 430.772 524.525 433.197C524.354 433.005 524.258 432.716 524.277 432.466C524.373 429.694 535.753 427.808 549.703 428.309C563.615 428.809 574.863 431.523 574.768 434.295Z" fill="#407BFF"/>
<path opacity="0.4" d="M574.768 434.295C574.768 434.525 574.654 434.814 574.463 435.007C572.712 432.447 562.283 430.214 549.646 429.752C536.971 429.29 526.409 430.772 524.525 433.197C524.354 433.005 524.258 432.716 524.277 432.466C524.373 429.694 535.753 427.808 549.703 428.309C563.615 428.809 574.863 431.523 574.768 434.295Z" fill="#407BFF"/>
<path opacity="0.4" d="M574.463 434.987C572.541 437.413 561.979 438.895 549.342 438.433C536.667 437.971 526.238 435.738 524.525 433.178C526.409 430.753 536.971 429.271 549.646 429.733C562.283 430.195 572.712 432.428 574.463 434.987Z" fill="#407BFF"/>
<path d="M578.441 428.578C578.289 432.678 565.233 435.526 549.247 434.93C533.279 434.352 520.433 430.561 520.585 426.461C520.738 422.361 533.793 419.513 549.78 420.09C565.747 420.667 578.593 424.459 578.441 428.559V428.578Z" fill="#407BFF"/>
<path d="M520.867 419.11L520.604 426.515L578.46 428.62L578.724 421.214L520.867 419.11Z" fill="#407BFF"/>
<path d="M578.688 421.168C578.536 425.268 565.48 428.116 549.494 427.539C533.527 426.961 520.681 423.17 520.833 419.07C520.985 414.97 534.041 412.122 550.027 412.718C565.994 413.296 578.84 417.087 578.688 421.187V421.168Z" fill="#407BFF"/>
<path opacity="0.4" d="M578.688 421.168C578.536 425.268 565.48 428.116 549.494 427.539C533.527 426.961 520.681 423.17 520.833 419.07C520.985 414.97 534.041 412.122 550.027 412.718C565.994 413.296 578.84 417.087 578.688 421.187V421.168Z" fill="white"/>
<path d="M575.034 420.764C575.034 420.995 574.92 421.283 574.73 421.476C572.979 418.916 562.55 416.683 549.913 416.221C537.238 415.759 526.675 417.241 524.791 419.667C524.62 419.474 524.525 419.185 524.544 418.935C524.639 416.164 536.02 414.277 549.97 414.778C563.882 415.278 575.129 417.992 575.034 420.764Z" fill="#407BFF"/>
<path opacity="0.4" d="M575.034 420.764C575.034 420.995 574.92 421.283 574.73 421.476C572.979 418.916 562.55 416.683 549.913 416.221C537.238 415.759 526.675 417.241 524.791 419.667C524.62 419.474 524.525 419.185 524.544 418.935C524.639 416.164 536.02 414.277 549.97 414.778C563.882 415.278 575.129 417.992 575.034 420.764Z" fill="#407BFF"/>
<path opacity="0.4" d="M574.73 421.457C572.807 423.882 562.245 425.364 549.608 424.902C536.933 424.44 526.504 422.188 524.791 419.647C526.675 417.222 537.238 415.74 549.913 416.202C562.55 416.664 572.979 418.897 574.73 421.457Z" fill="#407BFF"/>
<path d="M585.368 417.877C585.216 421.976 572.16 424.825 556.174 424.228C540.207 423.651 527.36 419.859 527.513 415.759C527.665 411.66 540.72 408.811 556.707 409.388C572.674 409.966 585.52 413.758 585.368 417.857V417.877Z" fill="#407BFF"/>
<path d="M527.727 408.343L527.465 415.748L585.321 417.843L585.583 410.437L527.727 408.343Z" fill="#407BFF"/>
<path d="M585.616 410.466C585.463 414.566 572.408 417.415 556.421 416.837C540.454 416.26 527.608 412.468 527.76 408.368C527.912 404.269 540.968 401.42 556.954 402.017C572.922 402.594 585.768 406.386 585.616 410.486V410.466Z" fill="#407BFF"/>
<path opacity="0.4" d="M585.616 410.466C585.463 414.566 572.408 417.415 556.421 416.837C540.454 416.26 527.608 412.468 527.76 408.368C527.912 404.269 540.968 401.42 556.954 402.017C572.922 402.594 585.768 406.386 585.616 410.486V410.466Z" fill="white"/>
<path d="M581.962 410.043C581.962 410.274 581.847 410.563 581.657 410.755C579.906 408.195 569.477 405.962 556.84 405.501C544.165 405.039 533.603 406.521 531.719 408.946C531.547 408.753 531.452 408.465 531.471 408.214C531.566 405.443 542.947 403.557 556.897 404.057C570.809 404.557 582.057 407.271 581.962 410.043Z" fill="#407BFF"/>
<path opacity="0.4" d="M581.962 410.043C581.962 410.274 581.847 410.563 581.657 410.755C579.906 408.195 569.477 405.962 556.84 405.501C544.165 405.039 533.603 406.521 531.719 408.946C531.547 408.753 531.452 408.465 531.471 408.214C531.566 405.443 542.947 403.557 556.897 404.057C570.809 404.557 582.057 407.271 581.962 410.043Z" fill="#407BFF"/>
<path opacity="0.4" d="M581.657 410.755C579.735 413.18 569.172 414.662 556.536 414.2C543.861 413.738 533.431 411.486 531.719 408.946C533.603 406.521 544.165 405.039 556.84 405.501C569.477 405.962 579.906 408.195 581.657 410.755Z" fill="#407BFF"/>
<path d="M355.602 444.592C355.431 448.692 368.239 452.56 384.206 453.234C400.174 453.927 413.267 451.155 413.438 447.075C413.61 442.975 400.802 439.106 384.834 438.433C368.867 437.74 355.773 440.511 355.602 444.592Z" fill="#407BFF"/>
<path d="M355.904 437.184L355.593 444.588L413.435 447.07L413.746 439.667L355.904 437.184Z" fill="#407BFF"/>
<path d="M355.926 437.182C355.754 441.281 368.562 445.15 384.53 445.843C400.497 446.536 413.591 443.764 413.762 439.684C413.933 435.584 401.125 431.715 385.158 431.042C369.19 430.349 356.097 433.12 355.926 437.201V437.182Z" fill="#407BFF"/>
<path opacity="0.4" d="M355.926 437.182C355.754 441.281 368.562 445.15 384.53 445.843C400.497 446.536 413.591 443.764 413.762 439.684C413.933 435.584 401.125 431.715 385.158 431.042C369.19 430.349 356.097 433.12 355.926 437.201V437.182Z" fill="white"/>
<path d="M359.618 437.047C359.618 437.278 359.694 437.586 359.865 437.778C361.806 435.372 372.369 433.967 385.005 434.506C397.68 435.045 408.091 437.374 409.784 439.934C409.956 439.742 410.089 439.472 410.089 439.222C410.203 436.45 399.013 433.679 385.063 433.082C371.151 432.485 359.732 434.295 359.618 437.066V437.047Z" fill="#407BFF"/>
<path opacity="0.4" d="M359.618 437.047C359.618 437.278 359.694 437.586 359.865 437.778C361.806 435.372 372.369 433.967 385.005 434.506C397.68 435.045 408.091 437.374 409.784 439.934C409.956 439.742 410.089 439.472 410.089 439.222C410.203 436.45 399.013 433.679 385.063 433.082C371.151 432.485 359.732 434.295 359.618 437.066V437.047Z" fill="#407BFF"/>
<path opacity="0.4" d="M359.865 437.778C361.597 440.338 372.007 442.648 384.644 443.206C397.319 443.745 407.881 442.34 409.784 439.934C408.091 437.374 397.68 435.064 385.005 434.506C372.369 433.967 361.806 435.372 359.865 437.778Z" fill="#407BFF"/>
<path d="M349.531 433.371C349.36 437.47 362.168 441.339 378.135 442.013C394.103 442.706 407.196 439.934 407.367 435.854C407.539 431.754 394.731 427.885 378.763 427.212C362.796 426.519 349.702 429.29 349.531 433.371Z" fill="#407BFF"/>
<path d="M349.852 425.982L349.541 433.386L407.383 435.868L407.694 428.464L349.852 425.982Z" fill="#407BFF"/>
<path d="M349.854 425.96C349.683 430.06 362.491 433.929 378.459 434.603C394.426 435.295 407.52 432.524 407.691 428.443C407.862 424.344 395.054 420.475 379.087 419.801C363.119 419.108 350.026 421.88 349.854 425.96Z" fill="#407BFF"/>
<path opacity="0.4" d="M349.854 425.96C349.683 430.06 362.491 433.929 378.459 434.603C394.426 435.295 407.52 432.524 407.691 428.443C407.862 424.344 395.054 420.475 379.087 419.801C363.119 419.108 350.026 421.88 349.854 425.96Z" fill="white"/>
<path d="M353.528 425.845C353.528 426.076 353.604 426.384 353.775 426.576C355.716 424.17 366.279 422.765 378.916 423.304C391.59 423.843 402.001 426.172 403.694 428.732C403.866 428.54 403.999 428.27 403.999 428.02C404.113 425.248 392.923 422.477 378.973 421.88C365.061 421.283 353.642 423.093 353.528 425.864V425.845Z" fill="#407BFF"/>
<path opacity="0.4" d="M353.528 425.845C353.528 426.076 353.604 426.384 353.775 426.576C355.716 424.17 366.279 422.765 378.916 423.304C391.59 423.843 402.001 426.172 403.694 428.732C403.866 428.54 403.999 428.27 403.999 428.02C404.113 425.248 392.923 422.477 378.973 421.88C365.061 421.283 353.642 423.093 353.528 425.864V425.845Z" fill="#407BFF"/>
<path opacity="0.4" d="M353.775 426.557C355.507 429.117 365.917 431.427 378.554 431.985C391.229 432.524 401.791 431.119 403.694 428.713C402.001 426.153 391.59 423.843 378.916 423.285C366.279 422.746 355.716 424.151 353.775 426.557Z" fill="#407BFF"/>
<path d="M350.33 419.859C350.159 423.959 362.967 427.827 378.934 428.501C394.902 429.194 407.995 426.422 408.167 422.342C408.338 418.242 395.53 414.374 379.562 413.7C363.595 413.007 350.501 415.779 350.33 419.859Z" fill="#407BFF"/>
<path d="M350.621 412.437L350.31 419.841L408.152 422.323L408.463 414.92L350.621 412.437Z" fill="#407BFF"/>
<path d="M350.635 412.449C350.463 416.549 363.272 420.417 379.239 421.091C395.206 421.784 408.3 419.012 408.471 414.932C408.642 410.832 395.834 406.963 379.867 406.29C363.9 405.597 350.806 408.368 350.635 412.449Z" fill="#407BFF"/>
<path opacity="0.4" d="M350.635 412.449C350.463 416.549 363.272 420.417 379.239 421.091C395.206 421.784 408.3 419.012 408.471 414.932C408.642 410.832 395.834 406.963 379.867 406.29C363.9 405.597 350.806 408.368 350.635 412.449Z" fill="white"/>
<path d="M354.327 412.333C354.327 412.564 354.403 412.872 354.574 413.065C356.515 410.659 367.078 409.254 379.715 409.793C392.39 410.332 402.8 412.661 404.494 415.22C404.665 415.028 404.798 414.759 404.798 414.508C404.912 411.737 393.722 408.965 379.772 408.368C365.86 407.772 354.441 409.581 354.327 412.353V412.333Z" fill="#407BFF"/>
<path opacity="0.4" d="M354.327 412.333C354.327 412.564 354.403 412.872 354.574 413.065C356.515 410.659 367.078 409.254 379.715 409.793C392.39 410.332 402.8 412.661 404.494 415.22C404.665 415.028 404.798 414.759 404.798 414.508C404.912 411.737 393.722 408.965 379.772 408.368C365.86 407.772 354.441 409.581 354.327 412.353V412.333Z" fill="#407BFF"/>
<path opacity="0.4" d="M354.574 413.045C356.306 415.605 366.716 417.915 379.353 418.473C392.028 419.012 402.59 417.607 404.494 415.201C402.8 412.641 392.39 410.332 379.715 409.773C367.078 409.235 356.515 410.64 354.574 413.045Z" fill="#407BFF"/>
<path d="M344.24 408.638C344.069 412.738 356.877 416.606 372.844 417.28C388.812 417.973 401.905 415.201 402.077 411.121C402.248 407.021 389.44 403.152 373.472 402.479C357.505 401.786 344.412 404.557 344.24 408.638Z" fill="#407BFF"/>
<path d="M344.53 401.216L344.22 408.619L402.061 411.102L402.372 403.698L344.53 401.216Z" fill="#407BFF"/>
<path d="M344.564 401.228C344.392 405.327 357.201 409.196 373.168 409.87C389.135 410.563 402.229 407.791 402.4 403.711C402.571 399.611 389.763 395.742 373.796 395.069C357.829 394.376 344.735 397.147 344.564 401.228Z" fill="#407BFF"/>
<path opacity="0.4" d="M344.564 401.228C344.392 405.327 357.201 409.196 373.168 409.87C389.135 410.563 402.229 407.791 402.4 403.711C402.571 399.611 389.763 395.742 373.796 395.069C357.829 394.376 344.735 397.147 344.564 401.228Z" fill="white"/>
<path d="M348.237 401.112C348.237 401.343 348.313 401.651 348.484 401.844C350.425 399.438 360.988 398.033 373.625 398.572C386.3 399.11 396.71 401.439 398.404 403.999C398.575 403.807 398.708 403.537 398.708 403.287C398.822 400.515 387.632 397.744 373.682 397.147C359.77 396.551 348.351 398.36 348.237 401.131V401.112Z" fill="#407BFF"/>
<path opacity="0.4" d="M348.237 401.112C348.237 401.343 348.313 401.651 348.484 401.844C350.425 399.438 360.988 398.033 373.625 398.572C386.3 399.11 396.71 401.439 398.404 403.999C398.575 403.807 398.708 403.537 398.708 403.287C398.822 400.515 387.632 397.744 373.682 397.147C359.77 396.551 348.351 398.36 348.237 401.131V401.112Z" fill="#407BFF"/>
<path opacity="0.4" d="M348.484 401.844C350.216 404.403 360.626 406.713 373.263 407.271C385.938 407.81 396.5 406.405 398.404 403.999C396.71 401.439 386.3 399.13 373.625 398.571C360.988 398.033 350.425 399.438 348.484 401.844Z" fill="#407BFF"/>
<path d="M353.528 399.13C353.356 403.229 366.164 407.098 382.132 407.772C398.099 408.465 411.193 405.693 411.364 401.613C411.535 397.513 398.727 393.644 382.76 392.97C366.792 392.278 353.699 395.049 353.528 399.13Z" fill="#407BFF"/>
<path d="M353.839 391.718L353.529 399.121L411.37 401.604L411.681 394.2L353.839 391.718Z" fill="#407BFF"/>
<path d="M353.832 391.719C353.661 395.819 366.469 399.688 382.436 400.381C398.404 401.074 411.497 398.302 411.669 394.222C411.84 390.122 399.032 386.253 383.064 385.58C367.097 384.887 354.003 387.658 353.832 391.739V391.719Z" fill="#407BFF"/>
<path opacity="0.4" d="M353.832 391.719C353.661 395.819 366.469 399.688 382.436 400.381C398.404 401.074 411.497 398.302 411.669 394.222C411.84 390.122 399.032 386.253 383.064 385.58C367.097 384.887 354.003 387.658 353.832 391.739V391.719Z" fill="white"/>
<path d="M357.524 391.604C357.524 391.835 357.6 392.143 357.772 392.335C359.713 389.929 370.275 388.524 382.912 389.063C395.587 389.602 405.997 391.931 407.691 394.491C407.862 394.299 407.995 394.029 407.995 393.779C408.11 391.007 396.919 388.236 382.969 387.639C369.057 387.042 357.638 388.852 357.524 391.623V391.604Z" fill="#407BFF"/>
<path opacity="0.4" d="M357.524 391.604C357.524 391.835 357.6 392.143 357.772 392.335C359.713 389.929 370.275 388.524 382.912 389.063C395.587 389.602 405.997 391.931 407.691 394.491C407.862 394.299 407.995 394.029 407.995 393.779C408.11 391.007 396.919 388.236 382.969 387.639C369.057 387.042 357.638 388.852 357.524 391.623V391.604Z" fill="#407BFF"/>
<path opacity="0.4" d="M357.772 392.335C359.503 394.895 369.914 397.205 382.55 397.763C395.225 398.302 405.788 396.897 407.691 394.491C405.997 391.931 395.587 389.621 382.912 389.063C370.275 388.524 359.713 389.929 357.772 392.335Z" fill="#407BFF"/>
<path d="M347.437 387.908C347.266 392.008 360.074 395.877 376.042 396.551C392.009 397.243 405.103 394.472 405.274 390.391C405.445 386.292 392.637 382.423 376.67 381.749C360.702 381.056 347.609 383.828 347.437 387.908Z" fill="#407BFF"/>
<path d="M347.748 380.516L347.438 387.919L405.279 390.402L405.59 382.998L347.748 380.516Z" fill="#407BFF"/>
<path d="M347.761 380.517C347.59 384.617 360.398 388.486 376.365 389.16C392.333 389.852 405.426 387.081 405.597 383C405.769 378.901 392.961 375.032 376.993 374.358C361.026 373.665 347.932 376.437 347.761 380.517Z" fill="#407BFF"/>
<path opacity="0.4" d="M347.761 380.517C347.59 384.617 360.398 388.486 376.365 389.16C392.333 389.852 405.426 387.081 405.597 383C405.769 378.901 392.961 375.032 376.993 374.358C361.026 373.665 347.932 376.437 347.761 380.517Z" fill="white"/>
<path d="M351.453 380.383C351.453 380.614 351.529 380.922 351.701 381.114C353.642 378.708 364.204 377.303 376.841 377.842C389.516 378.381 399.926 380.71 401.62 383.27C401.791 383.077 401.924 382.808 401.924 382.558C402.039 379.786 390.848 377.014 376.898 376.418C362.986 375.821 351.567 377.63 351.453 380.402V380.383Z" fill="#407BFF"/>
<path opacity="0.4" d="M351.453 380.383C351.453 380.614 351.529 380.922 351.701 381.114C353.642 378.708 364.204 377.303 376.841 377.842C389.516 378.381 399.926 380.71 401.62 383.27C401.791 383.077 401.924 382.808 401.924 382.558C402.039 379.786 390.848 377.014 376.898 376.418C362.986 375.821 351.567 377.63 351.453 380.402V380.383Z" fill="#407BFF"/>
<path opacity="0.4" d="M351.701 381.114C353.432 383.674 363.843 385.984 376.479 386.542C389.154 387.081 399.717 385.676 401.62 383.27C399.926 380.71 389.516 378.4 376.841 377.842C364.204 377.303 353.642 378.708 351.701 381.114Z" fill="#407BFF"/>
<path d="M411.326 379.959C411.497 384.059 398.689 387.928 382.722 388.601C366.754 389.294 353.661 386.523 353.489 382.442C353.318 378.343 366.126 374.474 382.094 373.8C398.061 373.107 411.155 375.879 411.326 379.959Z" fill="#407BFF"/>
<path d="M411.027 372.558L353.185 375.04L353.496 382.444L411.337 379.961L411.027 372.558Z" fill="#407BFF"/>
<path d="M411.021 372.549C411.193 376.649 398.385 380.517 382.417 381.21C366.45 381.903 353.356 379.132 353.185 375.051C353.014 370.952 365.822 367.083 381.789 366.409C397.757 365.716 410.85 368.488 411.021 372.568V372.549Z" fill="#407BFF"/>
<path opacity="0.4" d="M411.021 372.549C411.193 376.649 398.385 380.517 382.417 381.21C366.45 381.903 353.356 379.132 353.185 375.051C353.014 370.952 365.822 367.083 381.789 366.409C397.757 365.716 410.85 368.488 411.021 372.568V372.549Z" fill="white"/>
<path d="M407.329 372.414C407.329 372.645 407.253 372.953 407.082 373.146C405.141 370.74 394.578 369.335 381.941 369.874C369.267 370.413 358.856 372.742 357.163 375.301C356.991 375.109 356.858 374.84 356.858 374.589C356.744 371.818 367.934 369.046 381.884 368.449C395.796 367.853 407.215 369.662 407.329 372.434V372.414Z" fill="#407BFF"/>
<path opacity="0.4" d="M407.329 372.414C407.329 372.645 407.253 372.953 407.082 373.146C405.141 370.74 394.578 369.335 381.941 369.874C369.267 370.413 358.856 372.742 357.163 375.301C356.991 375.109 356.858 374.84 356.858 374.589C356.744 371.818 367.934 369.046 381.884 368.449C395.796 367.853 407.215 369.662 407.329 372.434V372.414Z" fill="#407BFF"/>
<path opacity="0.4" d="M407.082 373.146C405.35 375.706 394.94 378.015 382.303 378.574C369.628 379.112 359.066 377.707 357.163 375.301C358.856 372.742 369.267 370.432 381.942 369.874C394.578 369.335 405.141 370.74 407.082 373.146Z" fill="#407BFF"/>
<path d="M417.416 368.738C417.587 372.838 404.779 376.707 388.812 377.38C372.845 378.073 359.751 375.302 359.58 371.221C359.408 367.121 372.217 363.253 388.184 362.579C404.151 361.886 417.245 364.658 417.416 368.738Z" fill="#407BFF"/>
<path d="M417.098 361.317L359.256 363.8L359.567 371.203L417.408 368.721L417.098 361.317Z" fill="#407BFF"/>
<path d="M417.093 361.328C417.264 365.428 404.456 369.296 388.488 369.97C372.521 370.663 359.427 367.891 359.256 363.811C359.085 359.711 371.893 355.842 387.86 355.169C403.828 354.476 416.921 357.247 417.093 361.328Z" fill="#407BFF"/>
<path opacity="0.4" d="M417.093 361.328C417.264 365.428 404.456 369.296 388.488 369.97C372.521 370.663 359.427 367.891 359.256 363.811C359.085 359.711 371.893 355.842 387.86 355.169C403.828 354.476 416.921 357.247 417.093 361.328Z" fill="white"/>
<path d="M413.419 361.193C413.419 361.424 413.343 361.732 413.172 361.925C411.231 359.519 400.668 358.114 388.032 358.653C375.357 359.191 364.946 361.52 363.253 364.08C363.081 363.888 362.948 363.618 362.948 363.368C362.834 360.597 374.024 357.825 387.974 357.228C401.886 356.632 413.305 358.441 413.419 361.212V361.193Z" fill="#407BFF"/>
<path opacity="0.4" d="M413.419 361.193C413.419 361.424 413.343 361.732 413.172 361.925C411.231 359.519 400.668 358.114 388.032 358.653C375.357 359.191 364.946 361.52 363.253 364.08C363.081 363.888 362.948 363.618 362.948 363.368C362.834 360.597 374.024 357.825 387.974 357.228C401.886 356.632 413.305 358.441 413.419 361.212V361.193Z" fill="#407BFF"/>
<path opacity="0.4" d="M413.172 361.925C411.44 364.485 401.03 366.794 388.393 367.352C375.718 367.891 365.156 366.486 363.253 364.08C364.946 361.52 375.357 359.211 388.032 358.653C400.668 358.114 411.231 359.519 413.172 361.925Z" fill="#407BFF"/>
<path d="M416.617 355.226C416.788 359.326 403.98 363.195 388.013 363.869C372.045 364.561 358.952 361.79 358.78 357.709C358.609 353.61 371.417 349.741 387.384 349.067C403.352 348.374 416.445 351.146 416.617 355.226Z" fill="#407BFF"/>
<path d="M416.323 347.813L358.481 350.295L358.792 357.699L416.633 355.216L416.323 347.813Z" fill="#407BFF"/>
<path d="M416.312 347.816C416.484 351.916 403.675 355.785 387.708 356.458C371.741 357.151 358.647 354.38 358.476 350.299C358.305 346.199 371.113 342.331 387.08 341.657C403.047 340.964 416.141 343.736 416.312 347.816Z" fill="#407BFF"/>
<path opacity="0.4" d="M416.312 347.816C416.484 351.916 403.675 355.785 387.708 356.458C371.741 357.151 358.647 354.38 358.476 350.299C358.305 346.199 371.113 342.331 387.08 341.657C403.047 340.964 416.141 343.736 416.312 347.816Z" fill="white"/>
<path d="M412.62 347.682C412.62 347.913 412.544 348.22 412.373 348.413C410.432 346.007 399.869 344.602 387.232 345.141C374.557 345.68 364.147 348.009 362.453 350.569C362.282 350.376 362.149 350.107 362.149 349.856C362.035 347.085 373.225 344.313 387.175 343.717C401.087 343.12 412.506 344.929 412.62 347.701V347.682Z" fill="#407BFF"/>
<path opacity="0.4" d="M412.62 347.682C412.62 347.913 412.544 348.22 412.373 348.413C410.432 346.007 399.869 344.602 387.232 345.141C374.557 345.68 364.147 348.009 362.453 350.569C362.282 350.376 362.149 350.107 362.149 349.856C362.035 347.085 373.225 344.313 387.175 343.717C401.087 343.12 412.506 344.929 412.62 347.701V347.682Z" fill="#407BFF"/>
<path opacity="0.4" d="M412.373 348.413C410.641 350.973 400.231 353.282 387.594 353.841C374.919 354.38 364.357 352.975 362.453 350.569C364.147 348.009 374.557 345.699 387.232 345.141C399.869 344.602 410.432 346.007 412.373 348.413Z" fill="#407BFF"/>
<path d="M422.707 344.005C422.878 348.105 410.07 351.974 394.103 352.647C378.135 353.34 365.042 350.569 364.87 346.488C364.699 342.389 377.507 338.52 393.475 337.846C409.442 337.153 422.536 339.925 422.707 344.005Z" fill="#407BFF"/>
<path d="M422.374 336.611L364.533 339.093L364.844 346.497L422.685 344.014L422.374 336.611Z" fill="#407BFF"/>
<path d="M422.383 336.595C422.554 340.695 409.746 344.563 393.779 345.237C377.812 345.93 364.718 343.158 364.547 339.078C364.375 334.978 377.183 331.11 393.151 330.436C409.118 329.743 422.212 332.515 422.383 336.595Z" fill="#407BFF"/>
<path opacity="0.4" d="M422.383 336.595C422.554 340.695 409.746 344.563 393.779 345.237C377.812 345.93 364.718 343.158 364.547 339.078C364.375 334.978 377.183 331.11 393.151 330.436C409.118 329.743 422.212 332.515 422.383 336.595Z" fill="white"/>
<path d="M418.691 336.46C418.691 336.691 418.615 336.999 418.444 337.192C416.503 334.786 405.94 333.381 393.303 333.92C380.628 334.459 370.218 336.788 368.524 339.347C368.353 339.155 368.22 338.886 368.22 338.635C368.106 335.864 379.296 333.092 393.246 332.495C407.158 331.899 418.577 333.708 418.691 336.48V336.46Z" fill="#407BFF"/>
<path opacity="0.4" d="M418.691 336.46C418.691 336.691 418.615 336.999 418.444 337.192C416.503 334.786 405.94 333.381 393.303 333.92C380.628 334.459 370.218 336.788 368.524 339.347C368.353 339.155 368.22 338.886 368.22 338.635C368.106 335.864 379.296 333.092 393.246 332.495C407.158 331.899 418.577 333.708 418.691 336.48V336.46Z" fill="#407BFF"/>
<path opacity="0.4" d="M418.463 337.192C416.731 339.752 406.321 342.061 393.684 342.62C381.009 343.158 370.446 341.753 368.543 339.347C370.237 336.788 380.647 334.478 393.322 333.92C405.959 333.381 416.522 334.786 418.463 337.192Z" fill="#407BFF"/>
<path d="M413.419 334.497C413.591 338.597 400.782 342.465 384.815 343.139C368.848 343.832 355.754 341.06 355.583 336.98C355.412 332.88 368.22 329.012 384.187 328.338C400.154 327.645 413.248 330.417 413.419 334.497Z" fill="#407BFF"/>
<path d="M413.134 327.066L355.293 329.548L355.604 336.952L413.445 334.469L413.134 327.066Z" fill="#407BFF"/>
<path d="M413.115 327.087C413.286 331.187 400.478 335.055 384.511 335.748C368.543 336.441 355.45 333.669 355.278 329.589C355.107 325.489 367.915 321.621 383.883 320.947C399.85 320.254 412.944 323.026 413.115 327.106V327.087Z" fill="#407BFF"/>
<path opacity="0.4" d="M413.115 327.087C413.286 331.187 400.478 335.055 384.511 335.748C368.543 336.441 355.45 333.669 355.278 329.589C355.107 325.489 367.915 321.621 383.883 320.947C399.85 320.254 412.944 323.026 413.115 327.106V327.087Z" fill="white"/>
<path d="M409.423 326.952C409.423 327.183 409.347 327.491 409.175 327.684C407.234 325.278 396.672 323.873 384.035 324.412C371.36 324.95 360.95 327.279 359.256 329.839C359.085 329.647 358.952 329.377 358.952 329.127C358.837 326.356 370.028 323.584 383.978 322.987C397.89 322.391 409.309 324.2 409.423 326.971V326.952Z" fill="#407BFF"/>
<path opacity="0.4" d="M409.423 326.952C409.423 327.183 409.347 327.491 409.175 327.684C407.234 325.278 396.672 323.873 384.035 324.412C371.36 324.95 360.95 327.279 359.256 329.839C359.085 329.647 358.952 329.377 358.952 329.127C358.837 326.356 370.028 323.584 383.978 322.987C397.89 322.391 409.309 324.2 409.423 326.971V326.952Z" fill="#407BFF"/>
<path opacity="0.4" d="M409.175 327.684C407.444 330.243 397.033 332.553 384.396 333.111C371.722 333.65 361.159 332.245 359.256 329.839C360.95 327.279 371.36 324.97 384.035 324.412C396.672 323.873 407.234 325.278 409.175 327.684Z" fill="#407BFF"/>
<path d="M419.49 323.276C419.662 327.376 406.854 331.244 390.886 331.918C374.919 332.611 361.825 329.839 361.654 325.759C361.483 321.659 374.291 317.79 390.258 317.117C406.226 316.424 419.319 319.195 419.49 323.276Z" fill="#407BFF"/>
<path d="M419.187 315.902L361.346 318.385L361.656 325.788L419.498 323.306L419.187 315.902Z" fill="#407BFF"/>
<path d="M419.186 315.866C419.357 319.965 406.549 323.834 390.581 324.508C374.614 325.201 361.521 322.429 361.349 318.349C361.178 314.249 373.986 310.38 389.953 309.707C405.921 309.014 419.014 311.785 419.186 315.866Z" fill="#407BFF"/>
<path opacity="0.4" d="M419.186 315.866C419.357 319.965 406.549 323.834 390.581 324.508C374.614 325.201 361.521 322.429 361.349 318.349C361.178 314.249 373.986 310.38 389.953 309.707C405.921 309.014 419.014 311.785 419.186 315.866Z" fill="white"/>
<path d="M415.494 315.75C415.494 315.981 415.418 316.289 415.246 316.482C413.305 314.076 402.743 312.671 390.106 313.21C377.431 313.748 367.021 316.077 365.327 318.637C365.156 318.445 365.023 318.175 365.023 317.925C364.908 315.154 376.099 312.382 390.049 311.785C403.961 311.189 415.38 312.998 415.494 315.769V315.75Z" fill="#407BFF"/>
<path opacity="0.4" d="M415.494 315.75C415.494 315.981 415.418 316.289 415.246 316.482C413.305 314.076 402.743 312.671 390.106 313.21C377.431 313.748 367.021 316.077 365.327 318.637C365.156 318.445 365.023 318.175 365.023 317.925C364.908 315.154 376.099 312.382 390.049 311.785C403.961 311.189 415.38 312.998 415.494 315.769V315.75Z" fill="#407BFF"/>
<path opacity="0.4" d="M415.247 316.462C413.515 319.022 403.104 321.332 390.468 321.89C377.793 322.429 367.23 321.024 365.327 318.618C367.021 316.058 377.431 313.748 390.106 313.19C402.743 312.651 413.305 314.056 415.247 316.462Z" fill="#407BFF"/>
<path d="M395.424 314.88C408.907 309.768 415.74 294.57 410.685 280.933C405.63 267.297 390.602 260.387 377.119 265.499C363.636 270.611 356.803 285.809 361.857 299.446C366.912 313.082 381.94 319.992 395.424 314.88Z" fill="#407BFF"/>
<path d="M412.868 302.373C406.911 315.635 391.438 321.505 378.326 315.462C365.213 309.437 359.408 293.789 365.384 280.528C371.341 267.266 386.814 261.396 399.926 267.439C413.039 273.464 418.843 289.112 412.868 302.373Z" fill="#407BFF"/>
<path opacity="0.4" d="M412.868 302.373C406.911 315.635 391.438 321.505 378.326 315.462C365.213 309.437 359.408 293.789 365.384 280.528C371.341 267.266 386.814 261.396 399.926 267.439C413.039 273.464 418.843 289.112 412.868 302.373Z" fill="white"/>
<path d="M406.892 299.621C402.438 309.553 390.867 313.941 381.047 309.418C371.227 304.914 366.888 293.212 371.36 283.28C375.813 273.348 387.384 268.96 397.205 273.483C407.025 277.987 411.364 289.689 406.892 299.621Z" fill="#407BFF"/>
<path opacity="0.3" d="M398.175 297.311C397.909 296.156 397.281 295.117 396.31 294.232C397.357 294.174 398.289 293.866 399.108 293.308C399.926 292.75 400.554 291.98 400.992 290.979C401.715 289.343 401.639 287.765 400.764 286.206C400.097 285.051 399.013 284.011 397.49 283.088L398.156 281.625L395.91 280.585L395.302 281.952L393.056 280.913L393.665 279.546L391.419 278.507L390.81 279.873L385.938 277.641L376.803 297.985L381.675 300.218L381.028 301.661L383.274 302.701L383.921 301.257L386.166 302.296L385.519 303.74L387.765 304.779L388.431 303.278C390.525 304.086 392.333 304.375 393.836 304.106C395.644 303.778 396.938 302.72 397.738 300.93C398.308 299.679 398.461 298.466 398.194 297.292L398.175 297.311ZM388.964 283.338L393.589 285.474C394.731 285.994 395.511 286.61 395.93 287.264C396.348 287.938 396.367 288.669 396.025 289.458C395.663 290.248 395.092 290.709 394.331 290.844C393.551 290.979 392.599 290.786 391.438 290.248L386.813 288.111L388.964 283.318V283.338ZM391.476 299.756C390.677 299.871 389.649 299.659 388.431 299.082L383.007 296.58L385.272 291.556L390.696 294.058C393.17 295.194 394.026 296.599 393.265 298.293C392.885 299.14 392.295 299.64 391.476 299.756Z" fill="white"/>
<path d="M634.869 440.762C634.279 443.168 626.21 443.187 616.846 440.819C607.483 438.452 600.365 434.583 600.974 432.177C601.564 429.772 609.633 429.752 618.997 432.12C628.36 434.487 635.478 438.356 634.869 440.762Z" fill="#407BFF"/>
<path d="M602.058 427.842L600.98 432.193L634.894 440.782L635.971 436.432L602.058 427.842Z" fill="#407BFF"/>
<path d="M635.935 436.412C635.345 438.818 627.275 438.837 617.912 436.47C608.548 434.102 601.431 430.233 602.04 427.827C602.63 425.422 610.699 425.402 620.063 427.77C629.426 430.137 636.544 434.006 635.935 436.412Z" fill="#407BFF"/>
<path opacity="0.4" d="M635.935 436.412C635.345 438.818 627.275 438.837 617.912 436.47C608.548 434.102 601.431 430.233 602.04 427.827C602.63 425.422 610.699 425.402 620.063 427.77C629.426 430.137 636.544 434.006 635.935 436.412Z" fill="white"/>
<path d="M633.822 435.7C633.784 435.834 633.689 435.988 633.556 436.085C632.852 434.352 626.952 431.696 619.549 429.829C612.126 427.943 605.694 427.481 604.285 428.674C604.209 428.54 604.19 428.347 604.228 428.212C604.628 426.596 611.574 426.923 619.758 428.982C627.922 431.042 634.222 434.083 633.822 435.7Z" fill="#407BFF"/>
<path opacity="0.4" d="M633.822 435.7C633.784 435.834 633.689 435.988 633.556 436.085C632.852 434.352 626.952 431.696 619.549 429.829C612.126 427.943 605.694 427.481 604.285 428.674C604.209 428.54 604.19 428.347 604.228 428.212C604.628 426.596 611.574 426.923 619.758 428.982C627.922 431.042 634.222 434.083 633.822 435.7Z" fill="#407BFF"/>
<path opacity="0.4" d="M633.556 436.085C632.128 437.278 625.696 436.797 618.293 434.93C610.87 433.044 604.99 430.407 604.285 428.674C605.694 427.481 612.126 427.943 619.549 429.829C626.952 431.696 632.833 434.352 633.556 436.085Z" fill="#407BFF"/>
<path d="M651.16 448.653C651.255 451.117 643.528 453.465 633.879 453.869C624.23 454.293 616.332 452.618 616.237 450.154C616.142 447.691 623.869 445.343 633.518 444.938C643.167 444.515 651.065 446.189 651.16 448.653Z" fill="#407BFF"/>
<path d="M650.944 444.221L616.014 445.72L616.202 450.201L651.132 448.701L650.944 444.221Z" fill="#407BFF"/>
<path d="M650.969 444.168C651.064 446.632 643.338 448.98 633.689 449.384C624.04 449.808 616.142 448.133 616.047 445.67C615.951 443.206 623.678 440.858 633.327 440.454C642.976 440.03 650.874 441.705 650.969 444.168Z" fill="#407BFF"/>
<path opacity="0.4" d="M650.969 444.168C651.064 446.632 643.338 448.98 633.689 449.384C624.04 449.808 616.142 448.133 616.047 445.67C615.951 443.206 623.678 440.858 633.327 440.454C642.976 440.03 650.874 441.705 650.969 444.168Z" fill="white"/>
<path d="M648.743 444.091C648.743 444.245 648.686 444.419 648.59 444.534C647.43 443.091 641.035 442.224 633.403 442.552C625.753 442.879 619.453 444.284 618.445 445.824C618.331 445.708 618.273 445.535 618.254 445.4C618.178 443.726 624.934 442.051 633.365 441.686C641.758 441.32 648.667 442.417 648.743 444.091Z" fill="#407BFF"/>
<path opacity="0.4" d="M648.743 444.091C648.743 444.245 648.686 444.419 648.59 444.534C647.43 443.091 641.035 442.224 633.403 442.552C625.753 442.879 619.453 444.284 618.445 445.824C618.331 445.708 618.273 445.535 618.254 445.4C618.178 443.726 624.934 442.051 633.365 441.686C641.758 441.32 648.667 442.417 648.743 444.091Z" fill="#407BFF"/>
<path opacity="0.4" d="M648.59 444.534C647.544 446.074 641.263 447.479 633.632 447.806C625.981 448.133 619.587 447.287 618.445 445.824C619.472 444.284 625.753 442.879 633.403 442.552C641.035 442.224 647.411 443.071 648.59 444.534Z" fill="#407BFF"/>
<path d="M630.473 443.014C620.881 453.888 604.4 454.851 593.647 445.15C582.894 435.449 581.943 418.781 591.534 407.907C601.126 397.032 617.607 396.069 628.36 405.77C639.113 415.471 640.064 432.139 630.473 443.014Z" fill="#407BFF"/>
<path d="M632.795 445.112C623.203 455.986 606.722 456.949 595.969 447.248C585.216 437.547 584.264 420.879 593.856 410.004C603.448 399.13 619.929 398.167 630.682 407.868C641.435 417.569 642.386 434.237 632.795 445.112Z" fill="#407BFF"/>
<path opacity="0.4" d="M632.795 445.112C623.203 455.986 606.722 456.949 595.969 447.248C585.216 437.547 584.264 420.879 593.856 410.004C603.448 399.13 619.929 398.167 630.682 407.868C641.435 417.569 642.386 434.237 632.795 445.112Z" fill="white"/>
<path d="M627.903 440.704C620.729 448.846 608.396 449.558 600.346 442.301C592.296 435.045 591.591 422.573 598.766 414.431C605.941 406.29 618.273 405.578 626.324 412.834C634.374 420.09 635.078 432.562 627.903 440.704Z" fill="#407BFF"/>
<g opacity="0.3">
<path d="M616.96 436.47C614.658 440.242 610.509 440.415 606.227 437.162L603.791 439.799L601.374 437.624L603.81 434.987C601.659 432.659 600.156 429.983 599.585 427.789L603.353 425.749C603.962 428.02 605.142 430.176 606.703 431.889L610.452 427.847C608.682 425.017 606.855 421.745 608.948 418.319C611.251 414.547 615.457 414.393 619.777 417.761L622.213 415.124L624.63 417.299L622.175 419.955C623.774 421.707 624.992 423.689 625.639 425.595L622.004 427.77C621.471 426.018 620.5 424.401 619.301 423.035L615.4 427.25C617.151 430.022 618.94 433.197 616.941 436.47H616.96ZM613.611 424.401L616.808 420.956C615.229 420.032 613.934 420.206 613.249 421.264C612.716 422.15 613.002 423.189 613.611 424.401ZM612.583 433.679C613.078 432.851 612.85 431.85 612.222 430.715L609.196 434.006C610.699 434.872 611.936 434.757 612.583 433.679Z" fill="white"/>
</g>
<path d="M290.553 451.097C290.457 453.561 298.184 455.909 307.833 456.314C317.482 456.737 325.38 455.062 325.475 452.599C325.57 450.135 317.844 447.787 308.195 447.383C298.546 446.959 290.648 448.634 290.553 451.097Z" fill="#407BFF"/>
<path d="M290.747 446.622L290.559 451.102L325.488 452.601L325.676 448.121L290.747 446.622Z" fill="#407BFF"/>
<path d="M290.743 446.613C290.648 449.077 298.375 451.425 308.023 451.829C317.672 452.252 325.57 450.578 325.666 448.114C325.761 445.651 318.034 443.302 308.385 442.898C298.736 442.475 290.838 444.149 290.743 446.613Z" fill="#407BFF"/>
<path opacity="0.4" d="M290.743 446.613C290.648 449.077 298.375 451.425 308.023 451.829C317.672 452.252 325.57 450.578 325.666 448.114C325.761 445.651 318.034 443.302 308.385 442.898C298.736 442.475 290.838 444.149 290.743 446.613Z" fill="white"/>
<path d="M292.97 446.536C292.97 446.69 293.027 446.863 293.122 446.979C294.283 445.535 300.677 444.669 308.309 444.996C315.96 445.323 322.259 446.728 323.268 448.268C323.382 448.153 323.439 447.979 323.458 447.845C323.534 446.17 316.778 444.496 308.347 444.13C299.954 443.764 293.046 444.861 292.97 446.536Z" fill="#407BFF"/>
<path opacity="0.4" d="M292.97 446.536C292.97 446.69 293.027 446.863 293.122 446.979C294.283 445.535 300.677 444.669 308.309 444.996C315.96 445.323 322.259 446.728 323.268 448.268C323.382 448.153 323.439 447.979 323.458 447.845C323.534 446.17 316.778 444.496 308.347 444.13C299.954 443.764 293.046 444.861 292.97 446.536Z" fill="#407BFF"/>
<path opacity="0.4" d="M293.122 446.979C294.169 448.518 300.449 449.923 308.081 450.251C315.731 450.578 322.126 449.731 323.268 448.268C322.24 446.728 315.96 445.323 308.309 444.996C300.677 444.669 294.302 445.516 293.122 446.979Z" fill="#407BFF"/>
<path d="M286.88 444.322C286.784 446.786 294.511 449.134 304.16 449.538C313.809 449.962 321.707 448.287 321.802 445.824C321.897 443.36 314.171 441.012 304.522 440.608C294.873 440.184 286.975 441.859 286.88 444.322Z" fill="#407BFF"/>
<path d="M287.057 439.825L286.869 444.306L321.798 445.805L321.986 441.325L287.057 439.825Z" fill="#407BFF"/>
<path d="M287.07 439.838C286.975 442.301 294.702 444.65 304.35 445.054C313.999 445.477 321.897 443.803 321.993 441.339C322.088 438.875 314.361 436.527 304.712 436.123C295.063 435.7 287.165 437.374 287.07 439.838Z" fill="#407BFF"/>
<path opacity="0.4" d="M287.07 439.838C286.975 442.301 294.702 444.65 304.35 445.054C313.999 445.477 321.897 443.803 321.993 441.339C322.088 438.875 314.361 436.527 304.712 436.123C295.063 435.7 287.165 437.374 287.07 439.838Z" fill="white"/>
<path d="M289.297 439.761C289.297 439.915 289.354 440.088 289.449 440.204C290.61 438.76 297.004 437.894 304.636 438.221C312.287 438.548 318.586 439.953 319.595 441.493C319.709 441.378 319.766 441.204 319.785 441.07C319.861 439.395 313.105 437.721 304.674 437.355C296.281 436.989 289.373 438.086 289.297 439.761Z" fill="#407BFF"/>
<path opacity="0.4" d="M289.297 439.761C289.297 439.915 289.354 440.088 289.449 440.204C290.61 438.76 297.004 437.894 304.636 438.221C312.287 438.548 318.586 439.953 319.595 441.493C319.709 441.378 319.766 441.204 319.785 441.07C319.861 439.395 313.105 437.721 304.674 437.355C296.281 436.989 289.373 438.086 289.297 439.761Z" fill="#407BFF"/>
<path opacity="0.4" d="M289.449 440.203C290.496 441.743 296.776 443.148 304.408 443.476C312.058 443.803 318.453 442.956 319.595 441.493C318.567 439.953 312.287 438.548 304.636 438.221C297.004 437.894 290.629 438.741 289.449 440.203Z" fill="#407BFF"/>
<path d="M287.355 436.162C287.26 438.625 294.987 440.973 304.636 441.378C314.285 441.801 322.183 440.127 322.278 437.663C322.373 435.199 314.646 432.851 304.997 432.447C295.349 432.023 287.451 433.698 287.355 436.162Z" fill="#407BFF"/>
<path d="M287.522 431.646L287.334 436.127L322.263 437.626L322.451 433.145L287.522 431.646Z" fill="#407BFF"/>
<path d="M287.546 431.677C287.451 434.141 295.177 436.489 304.826 436.893C314.475 437.316 322.373 435.642 322.468 433.178C322.563 430.715 314.837 428.366 305.188 427.962C295.539 427.539 287.641 429.213 287.546 431.677Z" fill="#407BFF"/>
<path opacity="0.4" d="M287.546 431.677C287.451 434.141 295.177 436.489 304.826 436.893C314.475 437.316 322.373 435.642 322.468 433.178C322.563 430.715 314.837 428.366 305.188 427.962C295.539 427.539 287.641 429.213 287.546 431.677Z" fill="white"/>
<path d="M289.772 431.6C289.772 431.754 289.829 431.927 289.925 432.043C291.086 430.599 297.48 429.733 305.112 430.06C312.762 430.387 319.062 431.792 320.07 433.332C320.185 433.217 320.242 433.044 320.261 432.909C320.337 431.234 313.581 429.56 305.15 429.194C296.757 428.828 289.848 429.925 289.772 431.6Z" fill="#407BFF"/>
<path opacity="0.4" d="M289.772 431.6C289.772 431.754 289.829 431.927 289.925 432.043C291.086 430.599 297.48 429.733 305.112 430.06C312.762 430.387 319.062 431.792 320.07 433.332C320.185 433.217 320.242 433.044 320.261 432.909C320.337 431.234 313.581 429.56 305.15 429.194C296.757 428.828 289.848 429.925 289.772 431.6Z" fill="#407BFF"/>
<path opacity="0.4" d="M289.925 432.043C290.971 433.582 297.252 434.987 304.883 435.315C312.534 435.642 318.928 434.795 320.07 433.332C319.043 431.792 312.762 430.387 305.112 430.06C297.48 429.733 291.105 430.58 289.925 432.043Z" fill="#407BFF"/>
<path d="M283.682 429.386C283.587 431.85 291.314 434.198 300.963 434.603C310.612 435.026 318.51 433.351 318.605 430.888C318.7 428.424 310.973 426.076 301.324 425.672C291.675 425.248 283.777 426.923 283.682 429.386Z" fill="#407BFF"/>
<path d="M283.871 424.888L283.683 429.369L318.613 430.868L318.801 426.388L283.871 424.888Z" fill="#407BFF"/>
<path d="M283.873 424.902C283.777 427.366 291.504 429.714 301.153 430.118C310.802 430.541 318.7 428.867 318.795 426.403C318.89 423.94 311.164 421.591 301.515 421.187C291.866 420.764 283.968 422.438 283.873 424.902Z" fill="#407BFF"/>
<path opacity="0.4" d="M283.873 424.902C283.777 427.366 291.504 429.714 301.153 430.118C310.802 430.541 318.7 428.867 318.795 426.403C318.89 423.94 311.164 421.591 301.515 421.187C291.866 420.764 283.968 422.438 283.873 424.902Z" fill="white"/>
<path d="M286.099 424.825C286.099 424.979 286.156 425.152 286.251 425.268C287.412 423.824 293.807 422.958 301.439 423.285C309.089 423.612 315.389 425.017 316.397 426.557C316.511 426.442 316.569 426.268 316.588 426.134C316.664 424.459 309.908 422.785 301.477 422.419C293.084 422.053 286.175 423.15 286.099 424.825Z" fill="#407BFF"/>
<path opacity="0.4" d="M286.099 424.825C286.099 424.979 286.156 425.152 286.251 425.268C287.412 423.824 293.807 422.958 301.439 423.285C309.089 423.612 315.389 425.017 316.397 426.557C316.511 426.442 316.569 426.268 316.588 426.134C316.664 424.459 309.908 422.785 301.477 422.419C293.084 422.053 286.175 423.15 286.099 424.825Z" fill="#407BFF"/>
<path opacity="0.4" d="M286.251 425.268C287.298 426.807 293.579 428.212 301.21 428.54C308.861 428.867 315.255 428.02 316.397 426.557C315.37 425.017 309.089 423.612 301.439 423.285C293.807 422.958 287.431 423.805 286.251 425.268Z" fill="#407BFF"/>
<path d="M289.297 423.651C289.201 426.114 296.928 428.463 306.577 428.867C316.226 429.29 324.124 427.616 324.219 425.152C324.314 422.688 316.588 420.34 306.939 419.936C297.29 419.513 289.392 421.187 289.297 423.651Z" fill="#407BFF"/>
<path d="M289.462 419.126L289.274 423.607L324.203 425.106L324.391 420.626L289.462 419.126Z" fill="#407BFF"/>
<path d="M289.487 419.166C289.392 421.63 297.119 423.978 306.767 424.382C316.416 424.806 324.314 423.131 324.41 420.648C324.505 418.185 316.778 415.836 307.129 415.432C297.48 415.009 289.582 416.683 289.487 419.147V419.166Z" fill="#407BFF"/>
<path opacity="0.4" d="M289.487 419.166C289.392 421.63 297.119 423.978 306.767 424.382C316.416 424.806 324.314 423.131 324.41 420.648C324.505 418.185 316.778 415.836 307.129 415.432C297.48 415.009 289.582 416.683 289.487 419.147V419.166Z" fill="white"/>
<path d="M291.714 419.089C291.714 419.243 291.771 419.416 291.866 419.532C293.027 418.088 299.421 417.222 307.053 417.549C314.704 417.877 321.003 419.282 322.012 420.821C322.126 420.706 322.183 420.533 322.202 420.398C322.278 418.723 315.522 417.049 307.091 416.683C298.698 416.318 291.79 417.415 291.714 419.089Z" fill="#407BFF"/>
<path opacity="0.4" d="M291.714 419.089C291.714 419.243 291.771 419.416 291.866 419.532C293.027 418.088 299.421 417.222 307.053 417.549C314.704 417.877 321.003 419.282 322.012 420.821C322.126 420.706 322.183 420.533 322.202 420.398C322.278 418.723 315.522 417.049 307.091 416.683C298.698 416.318 291.79 417.415 291.714 419.089Z" fill="#407BFF"/>
<path opacity="0.4" d="M291.847 419.532C292.894 421.072 299.174 422.477 306.805 422.804C314.456 423.131 320.851 422.284 321.993 420.821C320.965 419.282 314.684 417.877 307.034 417.549C299.402 417.222 293.027 418.069 291.847 419.532Z" fill="#407BFF"/>
<path d="M264.67 450.693C265.26 453.099 273.329 453.118 282.693 450.751C292.056 448.384 299.174 444.515 298.565 442.109C297.975 439.703 289.906 439.684 280.542 442.051C271.179 444.419 264.061 448.287 264.67 450.693Z" fill="#407BFF"/>
<path d="M297.517 437.765L263.604 446.355L264.681 450.705L298.595 442.115L297.517 437.765Z" fill="#407BFF"/>
<path d="M263.604 446.363C264.194 448.769 272.264 448.788 281.627 446.42C290.99 444.053 298.108 440.184 297.499 437.778C296.909 435.372 288.84 435.353 279.476 437.721C270.113 440.088 262.995 443.957 263.604 446.363Z" fill="#407BFF"/>
<path opacity="0.4" d="M263.604 446.363C264.194 448.769 272.264 448.788 281.627 446.42C290.99 444.053 298.108 440.184 297.499 437.778C296.909 435.372 288.84 435.353 279.476 437.721C270.113 440.088 262.995 443.957 263.604 446.363Z" fill="white"/>
<path d="M265.717 445.651C265.755 445.785 265.85 445.939 265.983 446.035C266.687 444.303 272.587 441.647 279.99 439.78C287.413 437.894 293.845 437.432 295.253 438.625C295.33 438.49 295.349 438.298 295.311 438.163C294.911 436.547 287.964 436.874 279.781 438.933C271.616 440.993 265.317 444.034 265.717 445.651Z" fill="#407BFF"/>
<path opacity="0.4" d="M265.717 445.651C265.755 445.785 265.85 445.939 265.983 446.035C266.687 444.303 272.587 441.647 279.99 439.78C287.413 437.894 293.845 437.432 295.253 438.625C295.33 438.49 295.349 438.298 295.311 438.163C294.911 436.547 287.964 436.874 279.781 438.933C271.616 440.993 265.317 444.034 265.717 445.651Z" fill="#407BFF"/>
<path opacity="0.4" d="M265.983 446.016C267.411 447.21 273.843 446.728 281.246 444.861C288.669 442.975 294.549 440.338 295.253 438.606C293.845 437.413 287.413 437.875 279.99 439.761C272.587 441.628 266.706 444.284 265.983 446.016Z" fill="#407BFF"/>
<path d="M248.474 451.097C248.379 453.561 256.106 455.909 265.755 456.314C275.404 456.737 283.302 455.062 283.397 452.599C283.492 450.135 275.765 447.787 266.116 447.383C256.467 446.959 248.569 448.634 248.474 451.097Z" fill="#407BFF"/>
<path d="M248.654 446.583L248.466 451.064L283.395 452.563L283.583 448.082L248.654 446.583Z" fill="#407BFF"/>
<path d="M248.665 446.613C248.569 449.077 256.296 451.425 265.945 451.829C275.594 452.252 283.492 450.578 283.587 448.114C283.682 445.651 275.956 443.302 266.307 442.898C256.658 442.475 248.76 444.149 248.665 446.613Z" fill="#407BFF"/>
<path opacity="0.4" d="M248.665 446.613C248.569 449.077 256.296 451.425 265.945 451.829C275.594 452.252 283.492 450.578 283.587 448.114C283.682 445.651 275.956 443.302 266.307 442.898C256.658 442.475 248.76 444.149 248.665 446.613Z" fill="white"/>
<path d="M250.891 446.536C250.891 446.69 250.948 446.863 251.043 446.979C252.204 445.535 258.599 444.669 266.231 444.996C273.881 445.323 280.181 446.728 281.189 448.268C281.303 448.153 281.361 447.979 281.38 447.845C281.456 446.17 274.7 444.496 266.269 444.13C257.876 443.764 250.967 444.861 250.891 446.536Z" fill="#407BFF"/>
<path opacity="0.4" d="M250.891 446.536C250.891 446.69 250.948 446.863 251.043 446.979C252.204 445.535 258.599 444.669 266.231 444.996C273.881 445.323 280.181 446.728 281.189 448.268C281.303 448.153 281.361 447.979 281.38 447.845C281.456 446.17 274.7 444.496 266.269 444.13C257.876 443.764 250.967 444.861 250.891 446.536Z" fill="#407BFF"/>
<path opacity="0.4" d="M251.043 446.979C252.09 448.518 258.371 449.923 266.002 450.251C273.653 450.578 280.047 449.731 281.189 448.268C280.162 446.728 273.881 445.323 266.231 444.996C258.599 444.669 252.223 445.516 251.043 446.979Z" fill="#407BFF"/>
<path d="M428.873 450.886C428.759 453.426 436.714 455.832 446.629 456.256C456.545 456.679 464.671 454.966 464.785 452.426C464.899 449.885 456.944 447.479 447.029 447.056C437.114 446.632 428.987 448.345 428.873 450.886Z" fill="#407BFF"/>
<path d="M429.018 446.254L428.825 450.85L464.743 452.392L464.936 447.796L429.018 446.254Z" fill="#407BFF"/>
<path d="M429.063 446.286C428.949 448.826 436.904 451.232 446.82 451.656C456.735 452.079 464.861 450.366 464.976 447.825C465.09 445.285 457.135 442.879 447.219 442.455C437.304 442.032 429.177 443.745 429.063 446.286Z" fill="#407BFF"/>
<path opacity="0.4" d="M429.063 446.286C428.949 448.826 436.904 451.232 446.82 451.656C456.735 452.079 464.861 450.366 464.976 447.825C465.09 445.285 457.135 442.879 447.219 442.455C437.304 442.032 429.177 443.745 429.063 446.286Z" fill="white"/>
<path d="M431.347 446.209C431.347 446.363 431.404 446.536 431.499 446.671C432.698 445.169 439.264 444.303 447.105 444.63C454.965 444.977 461.436 446.401 462.482 447.999C462.597 447.883 462.673 447.71 462.673 447.556C462.749 445.843 455.802 444.111 447.143 443.745C438.503 443.379 431.404 444.496 431.347 446.209Z" fill="#407BFF"/>
<path opacity="0.4" d="M431.347 446.209C431.347 446.363 431.404 446.536 431.499 446.671C432.698 445.169 439.264 444.303 447.105 444.63C454.965 444.977 461.436 446.401 462.482 447.999C462.597 447.883 462.673 447.71 462.673 447.556C462.749 445.843 455.802 444.111 447.143 443.745C438.503 443.379 431.404 444.496 431.347 446.209Z" fill="#407BFF"/>
<path opacity="0.4" d="M431.499 446.671C432.565 448.268 439.036 449.692 446.877 450.039C454.737 450.385 461.302 449.5 462.482 447.999C461.436 446.401 454.965 444.977 447.105 444.63C439.264 444.284 432.698 445.169 431.499 446.671Z" fill="#407BFF"/>
<path d="M425.086 443.918C424.971 446.459 432.927 448.865 442.842 449.288C452.757 449.712 460.884 447.999 460.998 445.458C461.112 442.917 453.157 440.511 443.242 440.088C433.326 439.665 425.2 441.378 425.086 443.918Z" fill="#407BFF"/>
<path d="M425.285 439.316L425.093 443.912L461.011 445.453L461.203 440.857L425.285 439.316Z" fill="#407BFF"/>
<path d="M425.276 439.318C425.162 441.859 433.117 444.265 443.032 444.688C452.948 445.112 461.074 443.399 461.188 440.858C461.302 438.317 453.347 435.911 443.432 435.488C433.517 435.064 425.39 436.777 425.276 439.318Z" fill="#407BFF"/>
<path opacity="0.4" d="M425.276 439.318C425.162 441.859 433.117 444.265 443.032 444.688C452.948 445.112 461.074 443.399 461.188 440.858C461.302 438.317 453.347 435.911 443.432 435.488C433.517 435.064 425.39 436.777 425.276 439.318Z" fill="white"/>
<path d="M427.579 439.241C427.579 439.395 427.636 439.568 427.731 439.703C428.93 438.202 435.496 437.336 443.337 437.663C451.197 438.009 457.668 439.434 458.714 441.031C458.828 440.916 458.905 440.742 458.905 440.588C458.981 438.875 452.034 437.143 443.375 436.778C434.735 436.412 427.636 437.528 427.579 439.241Z" fill="#407BFF"/>
<path opacity="0.4" d="M427.579 439.241C427.579 439.395 427.636 439.568 427.731 439.703C428.93 438.202 435.496 437.336 443.337 437.663C451.197 438.009 457.668 439.434 458.714 441.031C458.828 440.916 458.905 440.742 458.905 440.588C458.981 438.875 452.034 437.143 443.375 436.778C434.735 436.412 427.636 437.528 427.579 439.241Z" fill="#407BFF"/>
<path opacity="0.4" d="M427.731 439.703C428.797 441.301 435.268 442.725 443.108 443.071C450.968 443.418 457.534 442.532 458.714 441.031C457.667 439.434 451.197 438.009 443.337 437.663C435.496 437.316 428.93 438.202 427.731 439.703Z" fill="#407BFF"/>
<path d="M433.174 438.76C433.06 441.301 441.015 443.707 450.93 444.13C460.846 444.553 468.972 442.84 469.086 440.3C469.201 437.759 461.245 435.353 451.33 434.93C441.415 434.506 433.288 436.219 433.174 438.76Z" fill="#407BFF"/>
<path d="M433.36 434.158L433.167 438.754L469.085 440.295L469.278 435.699L433.36 434.158Z" fill="#407BFF"/>
<path d="M433.383 434.16C433.269 436.7 441.224 439.106 451.14 439.53C461.055 439.953 469.181 438.24 469.296 435.7C469.41 433.159 461.455 430.753 451.539 430.33C441.624 429.906 433.498 431.619 433.383 434.16Z" fill="#407BFF"/>
<path opacity="0.4" d="M433.383 434.16C433.269 436.7 441.224 439.106 451.14 439.53C461.055 439.953 469.181 438.24 469.296 435.7C469.41 433.159 461.455 430.753 451.539 430.33C441.624 429.906 433.498 431.619 433.383 434.16Z" fill="white"/>
<path d="M435.667 434.083C435.667 434.237 435.724 434.41 435.819 434.545C437.018 433.043 443.584 432.177 451.425 432.505C459.285 432.851 465.756 434.275 466.803 435.873C466.917 435.757 466.993 435.584 466.993 435.43C467.069 433.717 460.122 431.985 451.463 431.619C442.823 431.253 435.724 432.37 435.667 434.083Z" fill="#407BFF"/>
<path opacity="0.4" d="M435.667 434.083C435.667 434.237 435.724 434.41 435.819 434.545C437.018 433.043 443.584 432.177 451.425 432.505C459.285 432.851 465.756 434.275 466.803 435.873C466.917 435.757 466.993 435.584 466.993 435.43C467.069 433.717 460.122 431.985 451.463 431.619C442.823 431.253 435.724 432.37 435.667 434.083Z" fill="#407BFF"/>
<path opacity="0.4" d="M435.819 434.545C436.885 436.142 443.356 437.567 451.197 437.913C459.057 438.26 465.623 437.374 466.803 435.873C465.756 434.275 459.285 432.851 451.425 432.505C443.584 432.158 437.018 433.043 435.819 434.545Z" fill="#407BFF"/>
<path d="M433.288 431.812C433.174 434.352 441.129 436.758 451.045 437.182C460.96 437.605 469.086 435.892 469.2 433.351C469.315 430.811 461.36 428.405 451.444 427.981C441.529 427.558 433.402 429.271 433.288 431.812Z" fill="#407BFF"/>
<path d="M433.465 427.203L433.272 431.799L469.19 433.341L469.383 428.745L433.465 427.203Z" fill="#407BFF"/>
<path d="M433.479 427.212C433.364 429.752 441.319 432.158 451.235 432.582C461.15 433.005 469.277 431.292 469.391 428.751C469.505 426.211 461.55 423.805 451.634 423.381C441.719 422.958 433.593 424.671 433.479 427.212Z" fill="#407BFF"/>
<path opacity="0.4" d="M433.479 427.212C433.364 429.752 441.319 432.158 451.235 432.582C461.15 433.005 469.277 431.292 469.391 428.751C469.505 426.211 461.55 423.805 451.634 423.381C441.719 422.958 433.593 424.671 433.479 427.212Z" fill="white"/>
<path d="M435.762 427.115C435.762 427.269 435.819 427.443 435.915 427.577C437.114 426.076 443.679 425.21 451.52 425.537C459.38 425.883 465.851 427.308 466.898 428.905C467.012 428.79 467.088 428.617 467.088 428.463C467.164 426.75 460.218 425.017 451.558 424.652C442.918 424.286 435.819 425.402 435.762 427.115Z" fill="#407BFF"/>
<path opacity="0.4" d="M435.762 427.115C435.762 427.269 435.819 427.443 435.915 427.577C437.114 426.076 443.679 425.21 451.52 425.537C459.38 425.883 465.851 427.308 466.898 428.905C467.012 428.79 467.088 428.617 467.088 428.463C467.164 426.75 460.218 425.017 451.558 424.652C442.918 424.286 435.819 425.402 435.762 427.115Z" fill="#407BFF"/>
<path opacity="0.4" d="M435.915 427.577C436.98 429.175 443.451 430.599 451.292 430.946C459.152 431.292 465.718 430.407 466.898 428.905C465.851 427.308 459.38 425.883 451.52 425.537C443.679 425.191 437.114 426.076 435.915 427.577Z" fill="#407BFF"/>
<path d="M425.904 426.114C425.79 428.655 433.745 431.061 443.66 431.484C453.576 431.908 461.702 430.195 461.816 427.654C461.931 425.114 453.975 422.708 444.06 422.284C434.145 421.861 426.018 423.574 425.904 426.114Z" fill="#407BFF"/>
<path d="M426.115 421.543L425.921 426.139L461.839 427.687L462.033 423.091L426.115 421.543Z" fill="#407BFF"/>
<path d="M426.094 421.514C425.98 424.055 433.935 426.461 443.851 426.884C453.766 427.308 461.892 425.595 462.007 423.054C462.121 420.513 454.166 418.108 444.25 417.684C434.335 417.261 426.209 418.974 426.094 421.514Z" fill="#407BFF"/>
<path opacity="0.4" d="M426.094 421.514C425.98 424.055 433.935 426.461 443.851 426.884C453.766 427.308 461.892 425.595 462.007 423.054C462.121 420.513 454.166 418.108 444.25 417.684C434.335 417.261 426.209 418.974 426.094 421.514Z" fill="white"/>
<path d="M428.378 421.437C428.378 421.591 428.435 421.765 428.53 421.899C429.729 420.398 436.295 419.532 444.136 419.859C451.996 420.206 458.467 421.63 459.514 423.227C459.628 423.112 459.704 422.939 459.704 422.785C459.78 421.072 452.834 419.339 444.174 418.974C435.534 418.608 428.435 419.724 428.378 421.437Z" fill="#407BFF"/>
<path opacity="0.4" d="M428.378 421.437C428.378 421.591 428.435 421.765 428.53 421.899C429.729 420.398 436.295 419.532 444.136 419.859C451.996 420.206 458.467 421.63 459.514 423.227C459.628 423.112 459.704 422.939 459.704 422.785C459.78 421.072 452.834 419.339 444.174 418.974C435.534 418.608 428.435 419.724 428.378 421.437Z" fill="#407BFF"/>
<path opacity="0.4" d="M428.53 421.88C429.596 423.478 436.067 424.902 443.908 425.248C451.768 425.595 458.334 424.709 459.514 423.208C458.467 421.611 451.996 420.186 444.136 419.84C436.295 419.493 429.729 420.379 428.53 421.88Z" fill="#407BFF"/>
<path d="M472.264 439.973C471.218 442.205 477.46 447.383 486.195 451.54C494.931 455.698 502.867 457.237 503.895 455.005C504.941 452.772 498.699 447.594 489.964 443.437C481.228 439.28 473.292 437.74 472.264 439.973Z" fill="#407BFF"/>
<path d="M474.151 435.967L472.265 440.026L503.907 455.063L505.792 451.005L474.151 435.967Z" fill="#407BFF"/>
<path d="M474.149 435.931C473.102 438.163 479.344 443.341 488.08 447.498C496.815 451.656 504.751 453.195 505.779 450.963C506.826 448.73 500.583 443.553 491.848 439.395C483.112 435.238 475.176 433.698 474.149 435.931Z" fill="#407BFF"/>
<path opacity="0.4" d="M474.149 435.931C473.102 438.163 479.344 443.341 488.08 447.498C496.815 451.656 504.751 453.195 505.779 450.963C506.826 448.73 500.583 443.553 491.848 439.395C483.112 435.238 475.176 433.698 474.149 435.931Z" fill="white"/>
<path d="M476.223 436.72C476.166 436.854 476.147 437.028 476.185 437.182C477.822 436.296 484.026 438.009 490.953 441.301C497.881 444.592 503.152 448.345 503.495 450.174C503.647 450.116 503.761 449.981 503.838 449.846C504.542 448.326 498.947 444.149 491.315 440.511C483.702 436.893 476.927 435.199 476.223 436.72Z" fill="#407BFF"/>
<path opacity="0.4" d="M476.223 436.72C476.166 436.854 476.147 437.028 476.185 437.182C477.822 436.296 484.026 438.009 490.953 441.301C497.881 444.592 503.152 448.345 503.495 450.174C503.647 450.116 503.761 449.981 503.838 449.846C504.542 448.326 498.947 444.149 491.315 440.511C483.702 436.893 476.927 435.199 476.223 436.72Z" fill="#407BFF"/>
<path opacity="0.4" d="M476.204 437.182C476.566 439.01 481.837 442.763 488.746 446.055C495.673 449.346 501.896 451.059 503.514 450.174C503.171 448.345 497.9 444.592 490.972 441.301C484.064 438.009 477.841 436.316 476.204 437.182Z" fill="#407BFF"/>
<path d="M453.899 447.902C453.804 450.366 461.531 452.714 471.18 453.118C480.829 453.542 488.727 451.867 488.822 449.404C488.917 446.94 481.19 444.592 471.541 444.188C461.892 443.764 453.994 445.439 453.899 447.902Z" fill="#407BFF"/>
<path d="M454.076 443.402L453.888 447.883L488.817 449.382L489.005 444.901L454.076 443.402Z" fill="#407BFF"/>
<path d="M454.089 443.437C453.994 445.901 461.721 448.249 471.37 448.653C481.019 449.077 488.917 447.402 489.012 444.919C489.107 442.455 481.381 440.107 471.732 439.703C462.083 439.28 454.185 440.954 454.089 443.418V443.437Z" fill="#407BFF"/>
<path opacity="0.4" d="M454.089 443.437C453.994 445.901 461.721 448.249 471.37 448.653C481.019 449.077 488.917 447.402 489.012 444.919C489.107 442.455 481.381 440.107 471.732 439.703C462.083 439.28 454.185 440.954 454.089 443.418V443.437Z" fill="white"/>
<path d="M456.316 443.36C456.316 443.514 456.373 443.687 456.468 443.803C457.629 442.359 464.024 441.493 471.655 441.82C479.306 442.148 485.605 443.553 486.614 445.092C486.728 444.977 486.785 444.804 486.804 444.669C486.881 442.994 480.124 441.32 471.694 440.954C463.301 440.588 456.392 441.686 456.316 443.36Z" fill="#407BFF"/>
<path opacity="0.4" d="M456.316 443.36C456.316 443.514 456.373 443.687 456.468 443.803C457.629 442.359 464.024 441.493 471.655 441.82C479.306 442.148 485.605 443.553 486.614 445.092C486.728 444.977 486.785 444.804 486.804 444.669C486.881 442.994 480.124 441.32 471.694 440.954C463.301 440.588 456.392 441.686 456.316 443.36Z" fill="#407BFF"/>
<path opacity="0.4" d="M456.468 443.803C457.515 445.343 463.795 446.748 471.427 447.075C479.078 447.402 485.472 446.555 486.614 445.092C485.586 443.553 479.306 442.147 471.655 441.82C464.024 441.493 457.648 442.34 456.468 443.803Z" fill="#407BFF"/>
</g>
<defs>
<clipPath id="clip0_201_3337">
<rect width="738" height="468.942" fill="white" transform="translate(0 0.305542)"/>
</clipPath>
</defs>
</svg>
