<svg width="50" height="50" viewBox="0 0 50 50" fill="none" xmlns="http://www.w3.org/2000/svg">
<circle cx="25" cy="25" r="25" fill="#FFBD22"/>
<path d="M8.10156 33.7539C8.10156 33.3867 8.23047 33.0742 8.48828 32.8164C8.74609 32.5508 9.05859 32.418 9.42578 32.418H11.9922V18.5078C11.9922 17.6875 12.2148 17.0703 12.6602 16.6562C13.1133 16.2344 13.7266 16.0234 14.5 16.0234H35.5C36.3203 16.0234 36.9414 16.2344 37.3633 16.6562C37.793 17.0703 38.0078 17.6875 38.0078 18.5078V32.418H40.5742C40.9414 32.418 41.2539 32.5508 41.5117 32.8164C41.7695 33.0742 41.8984 33.3867 41.8984 33.7539C41.8984 34.1211 41.7695 34.4336 41.5117 34.6914C41.2539 34.957 40.9414 35.0898 40.5742 35.0898H9.42578C9.05859 35.0898 8.74609 34.957 8.48828 34.6914C8.23047 34.4336 8.10156 34.1211 8.10156 33.7539ZM13.8789 32.418H36.1211V19.0352C36.1211 18.6602 36.0273 18.3789 35.8398 18.1914C35.6523 18.0039 35.3711 17.9102 34.9961 17.9102H15.0039C14.6289 17.9102 14.3477 18.0039 14.1602 18.1914C13.9727 18.3789 13.8789 18.6602 13.8789 19.0352V32.418Z" fill="white"/>
</svg>
