<svg width="50" height="50" viewBox="0 0 50 50" fill="none" xmlns="http://www.w3.org/2000/svg">
<circle cx="25" cy="25" r="25" fill="#1CDA8A"/>
<path d="M14.0508 23.3359C14.0508 22.0469 14.293 20.8398 14.7773 19.7148C15.2617 18.582 15.9336 17.5859 16.793 16.7266C17.6523 15.8672 18.6445 15.1953 19.7695 14.7109C20.9023 14.2266 22.1133 13.9844 23.4023 13.9844C24.6914 13.9844 25.8984 14.2266 27.0234 14.7109C28.1562 15.1953 29.1523 15.8672 30.0117 16.7266C30.8711 17.5859 31.543 18.582 32.0273 19.7148C32.5117 20.8398 32.7539 22.0469 32.7539 23.3359C32.7539 24.4062 32.582 25.4219 32.2383 26.3828C31.9023 27.3438 31.4336 28.2148 30.832 28.9961L36.5625 34.7617C36.6875 34.8867 36.7812 35.0312 36.8438 35.1953C36.9141 35.3594 36.9492 35.5352 36.9492 35.7227C36.9492 35.9805 36.8906 36.2148 36.7734 36.4258C36.6641 36.6367 36.5078 36.8008 36.3047 36.918C36.1016 37.043 35.8672 37.1055 35.6016 37.1055C35.4141 37.1055 35.2344 37.0703 35.0625 37C34.8984 36.9375 34.7461 36.8398 34.6055 36.707L28.8398 30.9297C28.0742 31.4766 27.2305 31.9062 26.3086 32.2188C25.3867 32.5312 24.418 32.6875 23.4023 32.6875C22.1133 32.6875 20.9023 32.4453 19.7695 31.9609C18.6445 31.4766 17.6523 30.8047 16.793 29.9453C15.9336 29.0859 15.2617 28.0938 14.7773 26.9688C14.293 25.8359 14.0508 24.625 14.0508 23.3359ZM16.0547 23.3359C16.0547 24.3516 16.2422 25.3047 16.6172 26.1953C17 27.0781 17.5273 27.8555 18.1992 28.5273C18.8789 29.1992 19.6602 29.7266 20.543 30.1094C21.4336 30.4922 22.3867 30.6836 23.4023 30.6836C24.418 30.6836 25.3672 30.4922 26.25 30.1094C27.1406 29.7266 27.9219 29.1992 28.5938 28.5273C29.2656 27.8555 29.793 27.0781 30.1758 26.1953C30.5586 25.3047 30.75 24.3516 30.75 23.3359C30.75 22.3203 30.5586 21.3711 30.1758 20.4883C29.793 19.5977 29.2656 18.8164 28.5938 18.1445C27.9219 17.4648 27.1406 16.9375 26.25 16.5625C25.3672 16.1797 24.418 15.9883 23.4023 15.9883C22.3867 15.9883 21.4336 16.1797 20.543 16.5625C19.6602 16.9375 18.8789 17.4648 18.1992 18.1445C17.5273 18.8164 17 19.5977 16.6172 20.4883C16.2422 21.3711 16.0547 22.3203 16.0547 23.3359Z" fill="white"/>
</svg>
