<svg width="50" height="50" viewBox="0 0 50 50" fill="none" xmlns="http://www.w3.org/2000/svg">
<circle cx="25" cy="25" r="25" fill="#FC7900"/>
<path d="M25.2656 37.6914C25.1719 37.6914 25.0547 37.6719 24.9141 37.6328C24.7734 37.5938 24.6289 37.5352 24.4805 37.457C22.8164 36.5195 21.4102 35.6875 20.2617 34.9609C19.1211 34.2344 18.2031 33.5312 17.5078 32.8516C16.8125 32.1719 16.3086 31.4375 15.9961 30.6484C15.6836 29.8594 15.5273 28.9297 15.5273 27.8594V18.8945C15.5273 18.2773 15.6562 17.8359 15.9141 17.5703C16.1797 17.2969 16.5586 17.0586 17.0508 16.8555C17.3242 16.7383 17.7031 16.5859 18.1875 16.3984C18.6719 16.2109 19.207 16.0078 19.793 15.7891C20.3789 15.5703 20.9609 15.3555 21.5391 15.1445C22.125 14.9258 22.6602 14.7344 23.1445 14.5703C23.6289 14.3984 24.0117 14.2734 24.293 14.1953C24.4492 14.1562 24.6094 14.1172 24.7734 14.0781C24.9375 14.0391 25.1016 14.0195 25.2656 14.0195C25.4297 14.0195 25.5938 14.0391 25.7578 14.0781C25.9297 14.1094 26.0938 14.1484 26.25 14.1953C26.5234 14.2891 26.9023 14.4219 27.3867 14.5938C27.8711 14.7656 28.4062 14.957 28.9922 15.168C29.5781 15.3789 30.1602 15.5938 30.7383 15.8125C31.3242 16.0234 31.8594 16.2227 32.3438 16.4102C32.8281 16.5898 33.207 16.7383 33.4805 16.8555C33.9805 17.0664 34.3594 17.3047 34.6172 17.5703C34.875 17.8359 35.0039 18.2773 35.0039 18.8945V27.8594C35.0039 28.9297 34.8477 29.8633 34.5352 30.6602C34.2305 31.4492 33.7305 32.1836 33.0352 32.8633C32.3398 33.543 31.418 34.2422 30.2695 34.9609C29.1289 35.6875 27.7227 36.5195 26.0508 37.457C25.9023 37.5352 25.7578 37.5938 25.6172 37.6328C25.4766 37.6719 25.3594 37.6914 25.2656 37.6914ZM25.2656 35.5703C25.3594 35.5703 25.4609 35.5469 25.5703 35.5C25.6797 35.4609 25.8203 35.3906 25.9922 35.2891C27.3438 34.4688 28.4766 33.7617 29.3906 33.168C30.3125 32.5742 31.0469 32.0117 31.5938 31.4805C32.1484 30.9492 32.543 30.3672 32.7773 29.7344C33.0195 29.1016 33.1406 28.332 33.1406 27.4258V19.2578C33.1406 19.0625 33.1133 18.9141 33.0586 18.8125C33.0117 18.7109 32.9102 18.6328 32.7539 18.5781C32.3867 18.4531 31.9648 18.3086 31.4883 18.1445C31.0195 17.9727 30.5234 17.793 30 17.6055C29.4844 17.418 28.9648 17.2305 28.4414 17.043C27.9258 16.8477 27.4336 16.6641 26.9648 16.4922C26.4961 16.3125 26.0859 16.1523 25.7344 16.0117C25.6406 15.9727 25.5547 15.9453 25.4766 15.9297C25.3984 15.9141 25.3281 15.9062 25.2656 15.9062C25.2031 15.9062 25.1328 15.9141 25.0547 15.9297C24.9766 15.9453 24.8906 15.9727 24.7969 16.0117C24.4453 16.1523 24.0352 16.3086 23.5664 16.4805C23.0977 16.6523 22.6016 16.832 22.0781 17.0195C21.5547 17.1992 21.0312 17.3828 20.5078 17.5703C19.9844 17.7578 19.4883 17.9375 19.0195 18.1094C18.5508 18.2812 18.1406 18.4375 17.7891 18.5781C17.625 18.6406 17.5156 18.7227 17.4609 18.8242C17.4141 18.918 17.3906 19.0625 17.3906 19.2578V27.4258C17.3906 28.332 17.5117 29.1016 17.7539 29.7344C17.9961 30.3672 18.3906 30.9531 18.9375 31.4922C19.4844 32.0234 20.2148 32.5859 21.1289 33.1797C22.0508 33.7656 23.1875 34.4688 24.5391 35.2891C24.7109 35.3906 24.8516 35.4609 24.9609 35.5C25.0703 35.5469 25.1719 35.5703 25.2656 35.5703ZM21.0352 29.9102V25.2461C21.0352 24.4414 21.3789 24.0156 22.0664 23.9688V22.5859C22.0664 21.5078 22.3594 20.6367 22.9453 19.9727C23.5391 19.3086 24.3125 18.9766 25.2656 18.9766C26.2188 18.9766 26.9883 19.3086 27.5742 19.9727C28.168 20.6367 28.4648 21.5078 28.4648 22.5859V23.9688C29.1602 24.0156 29.5078 24.4414 29.5078 25.2461V29.9102C29.5078 30.7695 29.1055 31.1992 28.3008 31.1992H22.2305C21.4336 31.1992 21.0352 30.7695 21.0352 29.9102ZM23.2852 23.957H27.2461V22.457C27.2461 21.7695 27.0625 21.2148 26.6953 20.793C26.3359 20.3711 25.8594 20.1602 25.2656 20.1602C24.6719 20.1602 24.1914 20.3711 23.8242 20.793C23.4648 21.2148 23.2852 21.7695 23.2852 22.457V23.957Z" fill="white"/>
</svg>
