<svg width="629" height="408" viewBox="0 0 629 408" fill="none" xmlns="http://www.w3.org/2000/svg">
<g clip-path="url(#clip0_5_5097)">
<path d="M154.282 257.299H118.683V408H154.282V257.299Z" fill="#E6E6E6"/>
<path d="M213.624 205.912H178.025V408H213.624V205.912Z" fill="#E0E0E0"/>
<path d="M272.966 257.299H237.367V408H272.966V257.299Z" fill="#EBEBEB"/>
<path d="M35.5987 308.686H0V408H35.5987V308.686Z" fill="#F0F0F0"/>
<path d="M94.9404 283.881H59.3417V408H94.9404V283.881Z" fill="#EBEBEB"/>
<path d="M332.291 308.686H296.693V408H332.291V308.686Z" fill="#F5F5F5"/>
<path d="M629 154.526H593.401V408H629V154.526Z" fill="#E0E0E0"/>
<path d="M391.633 257.299H356.034V408H391.633V257.299Z" fill="#F0F0F0"/>
<path d="M569.658 205.912H534.06V408H569.658V205.912Z" fill="#E6E6E6"/>
<path d="M510.317 232.495H474.718V408H510.317V232.495Z" fill="#EBEBEB"/>
<path d="M450.975 283.881H415.376V408H450.975V283.881Z" fill="#F0F0F0"/>
<path d="M49.3074 215.048C52.4587 201.715 44.1896 188.355 30.8379 185.209C17.4862 182.062 4.10793 190.319 0.95664 203.652C-2.19465 216.985 6.07441 230.344 19.4261 233.491C32.7778 236.638 46.1561 228.381 49.3074 215.048Z" fill="#E0E0E0"/>
<path d="M45.6668 226.895C55.3672 217.209 55.3672 201.503 45.6668 191.816C35.9663 182.129 20.2387 182.129 10.5383 191.816C0.837784 201.503 0.837781 217.209 10.5383 226.895C20.2387 236.582 35.9663 236.582 45.6668 226.895Z" fill="#E6E6E6"/>
<path d="M28.0975 227.924C38.3666 227.924 46.6914 219.611 46.6914 209.356C46.6914 199.101 38.3666 190.788 28.0975 190.788C17.8283 190.788 9.50354 199.101 9.50354 209.356C9.50354 219.611 17.8283 227.924 28.0975 227.924Z" fill="#F0F0F0"/>
<path d="M36.2661 213.308C36.9813 217.418 34.1524 220.163 29.0828 220.592L29.0033 223.988H25.9202L25.9997 220.592C23.012 220.322 20.2626 219.386 18.4827 218.211L19.8812 214.387C21.7247 215.593 23.9337 216.355 26.111 216.577L26.254 211.356C23.2345 210.499 19.8812 209.356 19.2296 205.611C18.5145 201.5 21.3909 198.739 26.5877 198.358L26.6672 194.962H29.7503L29.6708 198.39C31.8957 198.612 34.0253 199.231 35.6622 200.152L34.4544 203.976C32.9605 203.087 31.2759 202.564 29.5755 202.373L29.4483 207.801C32.4361 208.642 35.694 209.753 36.3138 213.292L36.2661 213.308ZM26.3176 206.944L26.4288 202.5C24.7283 202.834 23.9019 203.802 24.0767 204.976C24.2516 205.928 25.1097 206.484 26.3017 206.944H26.3176ZM31.4031 214.101C31.2442 213.212 30.4337 212.657 29.2894 212.244L29.1941 216.466C30.7992 216.133 31.6097 215.26 31.4031 214.085V214.101Z" fill="white"/>
<path d="M616.525 0H487.177C480.603 0 475.274 5.3218 475.274 11.8866V60.7025C475.274 67.2673 480.603 72.5891 487.177 72.5891H616.525C623.099 72.5891 628.428 67.2673 628.428 60.7025V11.8866C628.428 5.3218 623.099 0 616.525 0Z" fill="#F0F0F0"/>
<path d="M515.037 9.88696H504.262C503.63 9.88696 503.117 10.3985 503.117 11.0296V62.5751C503.117 63.2062 503.63 63.7178 504.262 63.7178H515.037C515.668 63.7178 516.181 63.2062 516.181 62.5751V11.0296C516.181 10.3985 515.668 9.88696 515.037 9.88696Z" fill="white"/>
<path d="M603.255 9.88696H592.48C591.848 9.88696 591.335 10.3985 591.335 11.0296V62.5751C591.335 63.2062 591.848 63.7178 592.48 63.7178H603.255C603.886 63.7178 604.399 63.2062 604.399 62.5751V11.0296C604.399 10.3985 603.886 9.88696 603.255 9.88696Z" fill="white"/>
<path d="M560.679 27.6295H549.904C549.272 27.6295 548.76 28.1411 548.76 28.7722V62.5751C548.76 63.2062 549.272 63.7177 549.904 63.7177H560.679C561.311 63.7177 561.823 63.2062 561.823 62.5751V28.7722C561.823 28.1411 561.311 27.6295 560.679 27.6295Z" fill="white"/>
<path d="M538.048 36.2946H527.274C526.642 36.2946 526.129 36.8061 526.129 37.4372V62.5752C526.129 63.2062 526.642 63.7178 527.274 63.7178H538.048C538.68 63.7178 539.193 63.2062 539.193 62.5752V37.4372C539.193 36.8061 538.68 36.2946 538.048 36.2946Z" fill="white"/>
<path d="M581.959 57.3698H571.184C570.552 57.3698 570.04 57.8813 570.04 58.5124V62.5751C570.04 63.2061 570.552 63.7177 571.184 63.7177H581.959C582.591 63.7177 583.103 63.2061 583.103 62.5751V58.5124C583.103 57.8813 582.591 57.3698 581.959 57.3698Z" fill="white"/>
<path d="M598.058 9.56958C597.454 9.26805 596.739 9.53784 596.484 10.1568L577.43 51.4821C577.064 52.3549 575.856 52.4501 575.379 51.6408L557.628 24.7412C557.294 24.1699 556.547 24.0112 555.991 24.3762L533.869 33.2634C533.519 33.5014 533.042 33.5173 532.677 33.311L508.425 8.88717C507.837 8.56977 507.106 8.80782 506.82 9.41088L506.757 9.53784C506.502 10.0774 506.725 10.7281 507.249 11.0296L532.772 36.1517C533.154 36.358 533.615 36.3421 533.964 36.1041L555.276 27.7565C555.832 27.3915 556.563 27.5502 556.913 28.1215L575.729 56.7985C576.222 57.6079 577.43 57.5285 577.779 56.6398L598.598 11.0137C598.821 10.4583 598.598 9.80763 598.042 9.55371L598.058 9.56958Z" fill="#E0E0E0"/>
<path d="M268.738 70.7958C283.054 70.7958 294.658 59.2072 294.658 44.9119C294.658 30.6167 283.054 19.0281 268.738 19.0281C254.423 19.0281 242.818 30.6167 242.818 44.9119C242.818 59.2072 254.423 70.7958 268.738 70.7958Z" fill="#E0E0E0"/>
<path opacity="0.8" d="M268.42 65.6857C279.909 65.6857 289.223 56.3849 289.223 44.9119C289.223 33.4389 279.909 24.1382 268.42 24.1382C256.931 24.1382 247.617 33.4389 247.617 44.9119C247.617 56.3849 256.931 65.6857 268.42 65.6857Z" fill="white"/>
<path d="M268.373 48.7365C269.54 48.7365 270.486 47.7915 270.486 46.6258C270.486 45.4601 269.54 44.5151 268.373 44.5151C267.205 44.5151 266.259 45.4601 266.259 46.6258C266.259 47.7915 267.205 48.7365 268.373 48.7365Z" fill="#E0E0E0"/>
<path d="M268.134 47.4036L259.187 38.9925L260.045 38.072L268.15 45.6896L282.692 32.8667L283.534 33.8189L268.134 47.4036Z" fill="#E0E0E0"/>
<path d="M128.457 124.658V134.244C134.639 134.736 140.281 137.18 144.747 140.973L151.533 134.196C145.319 128.689 137.293 125.182 128.457 124.658Z" fill="#407BFF"/>
<path d="M123.817 191.407C109.8 190.296 98.6274 179.14 97.5149 165.142H87.916C89.0762 184.424 104.523 199.85 123.817 200.993V191.407Z" fill="#407BFF"/>
<path d="M97.5149 160.508C98.6274 146.511 109.816 135.355 123.817 134.244V124.658C104.508 125.817 89.0603 141.242 87.916 160.508H97.5149Z" fill="#407BFF"/>
<path opacity="0.2" d="M97.5149 160.508C98.6274 146.511 109.816 135.355 123.817 134.244V124.658C104.508 125.817 89.0603 141.242 87.916 160.508H97.5149Z" fill="black"/>
<path d="M154.807 137.465L148.021 144.242C152.28 149.241 154.87 155.732 154.87 162.825C154.87 177.886 143.237 190.233 128.457 191.407V200.993C148.529 199.802 164.437 183.171 164.437 162.825C164.437 153.097 160.798 144.226 154.807 137.481V137.465Z" fill="#407BFF"/>
<g opacity="0.8">
<path d="M128.457 124.658V134.244C134.639 134.736 140.281 137.18 144.747 140.973L151.533 134.196C145.319 128.689 137.293 125.182 128.457 124.658Z" fill="white"/>
</g>
<g opacity="0.6">
<path d="M123.817 191.407C109.8 190.296 98.6274 179.14 97.5149 165.142H87.916C89.0762 184.424 104.523 199.85 123.817 200.993V191.407Z" fill="white"/>
</g>
<g opacity="0.7">
<path d="M97.5149 160.508C98.6274 146.511 109.816 135.355 123.817 134.244V124.658C104.508 125.817 89.0603 141.242 87.916 160.508H97.5149Z" fill="white"/>
</g>
<path opacity="0.5" d="M154.807 137.465L148.021 144.242C152.28 149.241 154.87 155.732 154.87 162.825C154.87 177.886 143.237 190.233 128.457 191.407V200.993C148.529 199.802 164.437 183.171 164.437 162.825C164.437 153.097 160.798 144.226 154.807 137.481V137.465Z" fill="white"/>
<path d="M195.793 114.549L207.95 131.006L278.003 101.964L346.277 126.229L408.161 86.269L412.595 92.1567L427.279 68.1296L394.351 65.5428L399.404 72.2082L337.472 111.772L270.2 87.9512L195.793 114.549Z" fill="#407BFF"/>
<g opacity="0.5">
<path d="M195.793 114.549L207.95 131.006L278.003 101.964L346.277 126.229L408.161 86.269L412.595 92.1567L427.279 68.1296L394.351 65.5428L399.404 72.2082L337.472 111.772L270.2 87.9512L195.793 114.549Z" fill="white"/>
</g>
<path d="M482.934 124.801C474.416 124.801 467.519 131.689 467.519 140.195C467.519 148.701 474.416 155.589 482.934 155.589C491.452 155.589 498.35 148.685 498.35 140.195C498.35 131.705 491.437 124.801 482.934 124.801ZM482.934 147.892C478.675 147.892 475.226 144.448 475.226 140.195C475.226 135.942 478.675 132.498 482.934 132.498C487.193 132.498 490.642 135.942 490.642 140.195C490.642 144.448 487.193 147.892 482.934 147.892Z" fill="#407BFF"/>
<path d="M521.807 169.951C513.288 169.951 506.391 176.839 506.391 185.345C506.391 193.851 513.288 200.739 521.807 200.739C530.325 200.739 537.222 193.835 537.222 185.345C537.222 176.854 530.309 169.951 521.807 169.951ZM521.807 193.042C517.548 193.042 514.099 189.598 514.099 185.345C514.099 181.092 517.548 177.648 521.807 177.648C526.066 177.648 529.514 181.092 529.514 185.345C529.514 189.598 526.066 193.042 521.807 193.042Z" fill="#407BFF"/>
<path d="M488.735 200.755H478.484L514.099 124.801H524.349L488.735 200.755Z" fill="#407BFF"/>
<g opacity="0.5">
<path d="M482.934 124.801C474.416 124.801 467.519 131.689 467.519 140.195C467.519 148.701 474.416 155.589 482.934 155.589C491.452 155.589 498.35 148.685 498.35 140.195C498.35 131.705 491.437 124.801 482.934 124.801ZM482.934 147.892C478.675 147.892 475.226 144.448 475.226 140.195C475.226 135.942 478.675 132.498 482.934 132.498C487.193 132.498 490.642 135.942 490.642 140.195C490.642 144.448 487.193 147.892 482.934 147.892Z" fill="white"/>
<path d="M521.807 169.951C513.288 169.951 506.391 176.839 506.391 185.345C506.391 193.851 513.288 200.739 521.807 200.739C530.325 200.739 537.222 193.835 537.222 185.345C537.222 176.854 530.309 169.951 521.807 169.951ZM521.807 193.042C517.548 193.042 514.099 189.598 514.099 185.345C514.099 181.092 517.548 177.648 521.807 177.648C526.066 177.648 529.514 181.092 529.514 185.345C529.514 189.598 526.066 193.042 521.807 193.042Z" fill="white"/>
<path d="M488.735 200.755H478.484L514.099 124.801H524.349L488.735 200.755Z" fill="white"/>
</g>
<path d="M306.482 131.609C306.911 133.577 307.293 135.275 307.77 137.069C308.246 138.862 308.707 140.56 309.248 142.369C310.281 145.845 311.472 149.288 312.792 152.812C315.414 160.096 319.021 166.999 323.503 173.315C324.822 175.077 326.3 176.728 327.889 178.251C329.685 179.965 331.719 181.409 333.944 182.52C338.203 184.583 342.923 185.504 347.659 185.17C351.791 184.885 355.86 183.932 359.69 182.345C361.501 181.615 363.265 180.774 364.966 179.822C365.824 179.362 366.65 178.854 367.445 178.283C368.24 177.711 369.002 177.219 369.924 176.553L365.745 169.062L363.52 169.65L361.183 170.205C359.61 170.554 358.069 170.84 356.479 171.062C353.603 171.49 350.695 171.554 347.802 171.237C345.498 170.998 343.273 170.205 341.35 168.92C340.524 168.332 339.761 167.65 339.077 166.888C338.235 165.904 337.456 164.873 336.757 163.778C335.136 161.238 333.738 158.556 332.546 155.779C331.242 152.907 330.098 149.876 329.018 146.765C327.937 143.655 326.967 140.496 325.998 137.322L324.631 132.514C324.202 130.927 323.725 129.245 323.392 127.864L306.498 131.609H306.482Z" fill="#FF8B7B"/>
<path d="M305.116 121.976C312.315 112.835 323.265 116.184 329.415 130.752C332.832 138.513 335.533 146.559 337.488 154.795L311.838 163.794C305.1 150.018 297.694 131.371 305.116 121.976Z" fill="#407BFF"/>
<path opacity="0.1" d="M305.116 121.976C312.315 112.835 323.265 116.184 329.415 130.752C332.832 138.513 335.533 146.559 337.488 154.795L311.838 163.794C305.1 150.018 297.694 131.371 305.116 121.976Z" fill="black"/>
<path opacity="0.3" d="M315.827 137.275C313.713 135.831 309.391 144.162 307.388 153.986C308.787 157.414 310.312 160.683 311.822 163.746L327.254 158.334C324.727 149.13 320.579 140.512 315.827 137.275Z" fill="black"/>
<path d="M367.064 165.269L372.674 162.207L374.628 174.728C374.628 174.728 365.252 180.362 362.566 175.696L362.852 172.459C363.17 169.57 364.696 166.952 367.048 165.254L367.064 165.269Z" fill="#FF8B7B"/>
<path d="M379.714 161.604L384.625 171.665L374.581 174.728L372.626 162.222L379.714 161.604Z" fill="#FF8B7B"/>
<path d="M305.004 113.787L291.877 111.947L275.524 113.375C270.423 113.819 266.243 117.612 265.321 122.643C263.51 132.514 262.524 146.527 262.016 158.604C261.444 172.157 262.938 192.201 265.131 210.277L319.768 203.675C320.293 156.081 323.9 141.322 324.345 128.705C324.536 123.627 321.31 119.04 316.463 117.501L305.02 113.772L305.004 113.787Z" fill="#407BFF"/>
<path d="M321.532 349.884L333.149 353.09L343.575 325.825L331.958 322.604L321.532 349.884Z" fill="#FF8B7B"/>
<path d="M338.346 349.472C337.44 348.281 336.09 347.504 334.627 347.218L322.661 344.901C322.104 344.774 321.548 345.092 321.373 345.631L317.67 356.534C317.225 357.772 317.893 359.137 319.132 359.581C319.164 359.581 319.18 359.597 319.212 359.613C323.63 361.342 326.602 360.755 333.499 362.088C337.742 362.914 346.674 365.738 352.649 365.5C358.609 365.262 358.593 359.359 356.082 358.93C347.182 357.534 340.365 352.185 338.346 349.503V349.472Z" fill="#263238"/>
<g opacity="0.2">
<path d="M343.575 325.841L338.028 340.346L326.57 336.665L331.958 322.604L343.575 325.841Z" fill="black"/>
</g>
<path d="M372.562 245.397C372.181 249.618 371.339 253.887 370.21 258.172C367.143 270.011 361.899 282.072 357.56 293.832C348.978 317.065 341.525 337.315 341.525 337.315L325.585 331.824C325.585 331.824 339.904 264.599 349.534 257.728H290.399C289.255 257.728 288.143 257.648 287.094 257.505C297.281 256.188 313.157 249.92 327.889 243.651C340.905 238.097 353.078 232.59 359.69 230.447H359.706C367.747 233.828 373.166 238.604 372.546 245.381L372.562 245.397Z" fill="#263238"/>
<path opacity="0.1" d="M372.562 245.397C372.181 249.618 371.339 253.887 370.21 258.172C367.143 270.011 361.899 282.072 357.56 293.832C348.978 317.065 341.525 337.315 341.525 337.315L325.585 331.824C325.585 331.824 339.904 264.599 349.534 257.728H290.399C289.255 257.728 288.143 257.648 287.094 257.505C297.281 256.188 313.157 249.92 327.889 243.651C340.905 238.097 353.078 232.59 359.69 230.447H359.706C367.747 233.828 373.166 238.604 372.546 245.381L372.562 245.397Z" fill="black"/>
<path opacity="0.6" d="M359.721 230.463C353.11 232.606 340.937 238.112 327.921 243.667C313.189 249.935 297.312 256.204 287.126 257.521C269.962 255.236 263.51 234.811 281.452 211.276C293.101 211.292 304.814 222.417 304.814 222.417C304.814 222.417 340.047 222.211 359.721 230.479V230.463Z" fill="black"/>
<path d="M402.519 326.429H415.535L401.9 293.832L393.079 308.797L402.519 326.429Z" fill="#FF8B7B"/>
<path d="M414.47 323.35L399.198 319.89C398.657 319.747 398.101 320.049 397.911 320.573L393.651 332.3C393.286 333.538 394.001 334.84 395.257 335.205C395.288 335.205 395.304 335.205 395.336 335.22C400.692 336.331 403.33 336.601 410.036 338.125C414.168 339.061 424.625 341.807 430.331 343.092C436.036 344.377 437.53 338.807 435.257 337.744C425.07 333.03 419.556 328.539 416.6 324.699C416.075 324.016 415.313 323.54 414.47 323.35Z" fill="#263238"/>
<g opacity="0.2">
<path d="M401.9 293.848L407.7 307.734L396.004 314.256L393.079 308.813L401.9 293.848Z" fill="black"/>
</g>
<path d="M407.875 302.782L393.556 311.431C393.556 311.431 381.637 286.405 370.21 258.172C371.339 253.871 372.165 249.618 372.562 245.397C373.182 238.604 367.763 233.828 359.721 230.479L359.706 230.463C353.094 232.606 340.921 238.112 327.905 243.667C313.173 249.935 297.297 256.204 287.11 257.521C285.838 257.68 284.678 257.775 283.582 257.775C264.002 257.775 257.248 240.636 265.147 211.562C276.796 211.514 296.74 210.308 296.74 210.308C296.74 210.308 335.231 201.072 362.932 204.23C376.424 205.754 387.358 215.879 390.012 229.225C397.052 264.536 407.875 302.814 407.875 302.814V302.782Z" fill="#263238"/>
<path d="M407.875 302.782L393.556 311.431C393.556 311.431 381.637 286.405 370.21 258.172C371.339 253.871 372.165 249.618 372.562 245.397C373.182 238.604 367.763 233.828 359.721 230.479L359.706 230.463C353.094 232.606 340.921 238.112 327.905 243.667C313.173 249.935 297.297 256.204 287.11 257.521C285.838 257.68 284.678 257.775 283.582 257.775C264.002 257.775 257.248 240.636 265.147 211.562C276.796 211.514 296.74 210.308 296.74 210.308C296.74 210.308 335.231 201.072 362.932 204.23C376.424 205.754 387.358 215.879 390.012 229.225C397.052 264.536 407.875 302.814 407.875 302.814V302.782Z" fill="#263238"/>
<path d="M305.004 113.787L291.877 111.947L275.524 113.375C270.423 113.819 266.243 117.612 265.321 122.643C263.51 132.514 262.524 146.527 262.016 158.604C261.444 172.157 262.938 192.201 265.131 210.277L319.768 203.675C320.293 156.081 323.9 141.322 324.345 128.705C324.536 123.627 321.31 119.04 316.463 117.501L305.02 113.772L305.004 113.787Z" fill="#407BFF"/>
<path d="M265.115 207.277L263.7 211.705C263.51 212.038 263.907 212.403 264.479 212.435L319.021 209.166C319.482 209.166 319.848 208.975 319.895 208.674L320.468 204.214C320.468 203.897 320.134 203.643 319.641 203.611L265.973 206.912C265.639 206.865 265.306 206.992 265.099 207.261L265.115 207.277Z" fill="#263238"/>
<path opacity="0.1" d="M265.115 207.277L263.7 211.705C263.51 212.038 263.907 212.403 264.479 212.435L319.021 209.166C319.482 209.166 319.848 208.975 319.895 208.674L320.468 204.214C320.468 203.897 320.134 203.643 319.641 203.611L265.973 206.912C265.639 206.865 265.306 206.992 265.099 207.261L265.115 207.277Z" fill="black"/>
<path opacity="0.3" d="M270.629 118.167C281.531 116.263 280.991 140.957 276.033 159.048C274.602 164.285 268.389 162.095 266.291 160.731C259.425 156.271 257.105 126.071 270.629 118.183V118.167Z" fill="black"/>
<path d="M269.326 154.748C269.739 165.444 266.338 171.03 272.028 174.601C277.733 178.172 311.441 189.328 312.267 187.932C310.63 190.519 309.057 192.709 307.42 195.295C297.71 193.835 288 192.502 278.258 191.264C271.154 190.36 259.695 188.535 254.133 184.044C249.095 179.981 249.985 162.127 250.843 149.273C255.389 146.622 269.326 154.748 269.326 154.748Z" fill="#FF8B7B"/>
<path d="M266.402 113.803C277.606 110.518 281.849 119.485 278.432 134.847C276.716 143.147 274.253 151.272 271.074 159.112L247.649 151.732C250.176 136.64 254.928 117.168 266.386 113.803H266.402Z" fill="#407BFF"/>
<path d="M282.644 113.74C282.247 116.073 283.041 118.469 284.329 120.453C285.616 122.421 287.38 124.039 289.128 125.642C291.337 127.674 293.975 129.832 296.963 129.435C299.712 129.07 301.286 127.689 302.398 124.42C304.75 128.213 304.861 130.102 307.452 130.34C309.136 130.498 310.598 129.276 311.774 128.07C313.856 125.944 314.778 124.722 315.16 121.77C315.779 116.977 311.87 112.518 307.341 110.836C302.462 109.026 298.139 108.598 293.069 108.011C288.842 107.519 283.486 108.836 282.644 113.756V113.74Z" fill="#407BFF"/>
<path opacity="0.3" d="M282.644 113.74C282.247 116.073 283.041 118.469 284.329 120.453C285.616 122.421 287.38 124.039 289.128 125.642C291.337 127.674 293.975 129.832 296.963 129.435C299.712 129.07 301.286 127.689 302.398 124.42C304.75 128.213 304.861 130.102 307.452 130.34C309.136 130.498 310.598 129.276 311.774 128.07C313.856 125.944 314.778 124.722 315.16 121.77C315.779 116.977 311.87 112.518 307.341 110.836C302.462 109.026 298.139 108.598 293.069 108.011C288.842 107.519 283.486 108.836 282.644 113.756V113.74Z" fill="black"/>
<path d="M294.102 90.7125L300.03 97.5525L308.087 106.852C307.341 107.836 306.784 108.963 306.435 110.153C305.577 112.772 305.831 115.374 308.675 117.279C309.915 117.85 310.535 124.277 302.446 123.595C296.931 123.293 293.435 121.373 290.225 118.041C288.731 116.057 288.349 114.978 289.875 112.819C294.261 106.694 294.595 97.7905 294.118 90.7125H294.102Z" fill="#FF8B7B"/>
<path opacity="0.2" d="M306.149 104.551L301.063 97.8223C301 98.0286 300.936 98.2349 300.857 98.4571C300.618 99.4093 300.443 100.361 300.348 101.345C300.046 104.678 303.177 108.947 306.228 110.772L306.466 110.106C306.816 108.995 307.325 107.931 307.976 106.947C308.024 106.9 308.072 106.852 308.119 106.805L306.133 104.535L306.149 104.551Z" fill="black"/>
<path d="M294.643 78.1118C293.721 89.1414 292.704 95.5528 297.456 101.821C304.623 111.296 318.878 107.947 323.042 97.3461C326.793 87.8083 327.571 71.3671 317.432 65.6856C309.995 61.5753 300.634 64.2732 296.534 71.7003C295.437 73.6682 294.802 75.8583 294.643 78.1118Z" fill="#FF8B7B"/>
<path d="M293.022 87.8876L297.742 89.9348C299.378 89.2683 299.696 87.348 299.585 85.6023C299.172 78.8735 311.25 70.5894 311.25 70.5894C311.25 70.5894 298.393 66.3839 294.531 65.7332C293.181 65.511 288.317 69.0341 287.555 70.5735C285.425 74.8901 286.299 80.0161 289.223 83.8408C290.352 85.3167 291.623 86.6656 293.022 87.9035V87.8876Z" fill="#263238"/>
<path d="M288.969 85.8881C289.192 88.3479 290.32 90.6491 292.132 92.3313C294.5 94.4737 297.376 92.125 297.71 88.9986C297.996 86.2055 296.581 82.111 293.737 81.1747C290.876 80.2384 288.699 82.8093 288.969 85.8722V85.8881Z" fill="#FF8B7B"/>
<path d="M311.218 84.7295C311.043 85.6341 311.377 86.4752 311.981 86.6022C312.585 86.7291 313.125 86.1102 313.348 85.2056C313.57 84.301 313.189 83.4599 312.585 83.3171C311.981 83.1743 311.377 83.8091 311.218 84.7136V84.7295Z" fill="#263238"/>
<path d="M321.421 86.9831C321.246 87.9036 321.58 88.7447 322.184 88.8716C322.772 88.9986 323.376 88.3797 323.551 87.4751C323.725 86.5864 323.376 85.7294 322.788 85.6024C322.2 85.4755 321.58 86.0785 321.421 86.9831Z" fill="#263238"/>
<path d="M318.02 86.9354C318.338 89.5222 318.99 92.0614 319.959 94.4895C318.306 95.3624 316.177 94.1245 316.177 94.1245L318.02 86.9354Z" fill="#FF5652"/>
<path d="M313.602 99.2663C311.552 98.5522 309.899 97.0287 309.009 95.0608C308.946 94.918 309.009 94.7593 309.152 94.7117C309.295 94.6641 309.454 94.7275 309.502 94.8704C310.503 96.9969 312.442 98.5522 314.746 99.06C314.889 99.0759 315.001 99.2187 314.985 99.3774C314.969 99.5203 314.826 99.6314 314.667 99.6155H314.635C314.285 99.5361 313.936 99.425 313.602 99.2981V99.2663Z" fill="#263238"/>
<path d="M309.82 81.0953C309.724 81.0636 309.661 81.0159 309.597 80.9525C309.407 80.7144 309.438 80.3811 309.661 80.1907C310.948 79.0322 312.744 78.6037 314.413 79.0481C314.699 79.1274 314.858 79.4289 314.778 79.7146C314.778 79.7146 314.778 79.7146 314.778 79.7305C314.683 80.0161 314.381 80.1748 314.095 80.0796C312.776 79.7622 311.393 80.1114 310.376 81.0159C310.233 81.1429 310.01 81.1905 309.836 81.1112L309.82 81.0953Z" fill="#263238"/>
<path d="M322.581 81.1113C322.549 81.0319 322.534 80.9367 322.549 80.8415C322.629 80.5558 322.931 80.3812 323.217 80.4606C324.902 80.8573 326.268 82.0793 326.872 83.7139C326.967 83.9996 326.809 84.3011 326.523 84.3805C326.236 84.4757 325.934 84.317 325.855 84.0313C325.362 82.7617 324.282 81.8254 322.963 81.508C322.788 81.4445 322.645 81.3017 322.613 81.1113H322.581Z" fill="#263238"/>
<path d="M325.935 206.15L395.67 206.357C398.133 206.357 400.326 204.357 400.549 201.897L403.743 166.65C403.966 164.19 402.138 162.175 399.675 162.175L329.939 161.969C327.476 161.969 325.283 163.968 325.06 166.428L321.866 201.675C321.644 204.135 323.471 206.15 325.935 206.15Z" fill="#407BFF"/>
<path opacity="0.3" d="M325.935 206.15L395.67 206.357C398.133 206.357 400.326 204.357 400.549 201.897L403.743 166.65C403.966 164.19 402.138 162.175 399.675 162.175L329.939 161.969C327.476 161.969 325.283 163.968 325.06 166.428L321.866 201.675C321.644 204.135 323.471 206.15 325.935 206.15Z" fill="black"/>
<path d="M327.985 206.008L397.72 206.214C400.183 206.214 402.376 204.214 402.599 201.754L405.793 166.507C406.016 164.047 404.188 162.032 401.725 162.032L331.99 161.826C329.526 161.826 327.333 163.825 327.111 166.285L323.916 201.532C323.694 203.992 325.521 206.008 327.985 206.008Z" fill="#407BFF"/>
<path opacity="0.2" d="M327.985 206.008L397.72 206.214C400.183 206.214 402.376 204.214 402.599 201.754L405.793 166.507C406.016 164.047 404.188 162.032 401.725 162.032L331.99 161.826C329.526 161.826 327.333 163.825 327.111 166.285L323.916 201.532C323.694 203.992 325.521 206.008 327.985 206.008Z" fill="white"/>
<path d="M369.765 184.504C369.495 187.202 367.08 189.17 364.362 188.9C361.66 188.63 359.69 186.218 359.96 183.504C360.23 180.79 362.646 178.838 365.363 179.108C368.065 179.378 370.036 181.79 369.765 184.504Z" fill="white"/>
<path d="M398.689 206.166C398.689 208.277 397.434 209.991 395.908 209.991H395.876L323.9 209.705C323.122 209.705 322.486 208.832 322.486 207.801C322.502 206.738 323.122 205.865 323.9 205.865L398.689 206.166Z" fill="#407BFF"/>
<path opacity="0.3" d="M398.689 206.166C398.689 208.277 397.434 209.991 395.908 209.991H395.876L323.9 209.705C323.122 209.705 322.486 208.832 322.486 207.801C322.502 206.738 323.122 205.865 323.9 205.865L398.689 206.166Z" fill="black"/>
<path d="M323.519 209.721H288.874C287.03 209.721 285.536 208.229 285.536 206.388C285.536 206.103 285.775 205.865 286.061 205.865H323.519C324.584 205.865 325.442 206.722 325.442 207.785C325.442 208.848 324.584 209.705 323.519 209.705V209.721Z" fill="#407BFF"/>
<path d="M304.814 182.996L310.567 181.314L310.042 195.454C310.042 195.454 297.551 198.39 296.772 192.645L298.377 189.55C299.744 186.868 301.651 183.774 304.814 182.98V182.996Z" fill="#FF8B7B"/>
<path d="M319.18 185.25L317.48 193.185L310.026 195.454L310.567 181.33L319.18 185.25Z" fill="#FF8B7B"/>
<path d="M321.437 330.618L345.291 338.696L350.154 328.857L323.805 320.493L321.437 330.618Z" fill="#407BFF"/>
<path d="M389.933 313.399L411.912 301.148L407.859 290.943L383.989 304.861L389.933 313.399Z" fill="#407BFF"/>
<path d="M326.729 78.0007C329.987 77.8261 331.322 73.9697 330.941 72.3034C330.432 70.1451 329.145 68.1931 327.269 67.0346C328.318 63.7812 326.904 59.9724 322.963 57.3063C320.404 55.5606 316.192 55.4178 313.427 56.608C313.427 53.7355 308.135 51.847 304.75 55.4178C301.778 53.7673 298.059 53.8625 295.628 56.243C294.833 57.0206 294.261 58.2426 294.627 59.3059C291.941 59.3376 289.319 60.9246 288.063 63.3051C286.808 65.6697 286.951 68.7326 288.445 70.9703C289.525 72.589 292.036 72.5573 293.943 72.1447C294.849 74.0808 296.82 75.0806 298.854 75.7471C305.147 77.8261 313.761 75.8741 315.287 75.6995C316.812 75.525 318.433 75.6995 319.705 76.5882C319.276 77.4293 318.147 77.8102 317.21 77.9531C316.272 78.1118 315.318 77.9531 314.381 77.8102C316.701 79.1116 318.99 79.8575 321.58 79.2861C322.359 79.1116 324.107 77.9054 324.886 77.842C325.68 77.7785 326.809 78.1276 326.729 78.0165V78.0007Z" fill="#263238"/>
</g>
<defs>
<clipPath id="clip0_5_5097">
<rect width="629" height="408" fill="white"/>
</clipPath>
</defs>
</svg>
