<svg width="50" height="50" viewBox="0 0 50 50" fill="none" xmlns="http://www.w3.org/2000/svg">
<circle cx="25" cy="25" r="25" fill="#5F3DFF"/>
<path d="M10.4219 35.7109C10.0547 35.7109 9.75781 35.5938 9.53125 35.3594C9.30469 35.125 9.19141 34.8164 9.19141 34.4336V29.1719C9.19141 28.7891 9.30469 28.4844 9.53125 28.2578C9.75781 28.0234 10.0547 27.9062 10.4219 27.9062H13.2461C13.6133 27.9062 13.9102 28.0234 14.1367 28.2578C14.3633 28.4844 14.4766 28.7891 14.4766 29.1719V34.4336C14.4766 34.8164 14.3633 35.125 14.1367 35.3594C13.9102 35.5938 13.6133 35.7109 13.2461 35.7109H10.4219ZM19.1992 35.7109C18.832 35.7109 18.5352 35.5938 18.3086 35.3594C18.082 35.125 17.9688 34.8164 17.9688 34.4336V25.5156C17.9688 25.1328 18.082 24.8242 18.3086 24.5898C18.5352 24.3555 18.832 24.2383 19.1992 24.2383H22.0234C22.3906 24.2383 22.6875 24.3555 22.9141 24.5898C23.1406 24.8242 23.2539 25.1328 23.2539 25.5156V34.4336C23.2539 34.8164 23.1406 35.125 22.9141 35.3594C22.6875 35.5938 22.3906 35.7109 22.0234 35.7109H19.1992ZM27.9766 35.7109C27.6094 35.7109 27.3125 35.5938 27.0859 35.3594C26.8594 35.125 26.7461 34.8164 26.7461 34.4336V21.2734C26.7461 20.8906 26.8594 20.582 27.0859 20.3477C27.3125 20.1133 27.6094 19.9961 27.9766 19.9961H30.8008C31.168 19.9961 31.4648 20.1133 31.6914 20.3477C31.918 20.582 32.0312 20.8906 32.0312 21.2734V34.4336C32.0312 34.8164 31.918 35.125 31.6914 35.3594C31.4648 35.5938 31.168 35.7109 30.8008 35.7109H27.9766ZM36.7422 35.7109C36.375 35.7109 36.0781 35.5938 35.8516 35.3594C35.625 35.125 35.5117 34.8164 35.5117 34.4336V16.6445C35.5117 16.2617 35.625 15.9531 35.8516 15.7188C36.0781 15.4844 36.375 15.3672 36.7422 15.3672H39.5898C39.957 15.3672 40.25 15.4844 40.4688 15.7188C40.6953 15.9531 40.8086 16.2617 40.8086 16.6445V34.4336C40.8086 34.8164 40.6953 35.125 40.4688 35.3594C40.25 35.5938 39.957 35.7109 39.5898 35.7109H36.7422Z" fill="white"/>
</svg>
