<svg width="50" height="50" viewBox="0 0 50 50" fill="none" xmlns="http://www.w3.org/2000/svg">
<circle cx="25" cy="25" r="25" fill="#FC7900"/>
<path d="M16.1484 33.0625C15.2344 33.0625 14.4961 32.7695 13.9336 32.1836C13.3711 31.5977 13.0898 30.8242 13.0898 29.8633V21.1797C13.0898 20.2266 13.3711 19.457 13.9336 18.8711C14.4961 18.2852 15.2344 17.9922 16.1484 17.9922H34.8633C35.7773 17.9922 36.5117 18.2852 37.0664 18.8711C37.6289 19.457 37.9102 20.2266 37.9102 21.1797V29.8633C37.9102 30.8242 37.6289 31.5977 37.0664 32.1836C36.5117 32.7695 35.7773 33.0625 34.8633 33.0625H16.1484ZM16.4531 31.1758H34.5586C35.0273 31.1758 35.3867 31.043 35.6367 30.7773C35.8945 30.5039 36.0234 30.1211 36.0234 29.6289V21.4258C36.0234 20.9336 35.8945 20.5547 35.6367 20.2891C35.3867 20.0156 35.0273 19.8789 34.5586 19.8789H16.4531C15.9766 19.8789 15.6094 20.0156 15.3516 20.2891C15.1016 20.5547 14.9766 20.9336 14.9766 21.4258V29.6289C14.9766 30.1211 15.1016 30.5039 15.3516 30.7773C15.6094 31.043 15.9766 31.1758 16.4531 31.1758ZM22.3828 30.3086C22.2266 30.3086 22.0977 30.2578 21.9961 30.1562C21.8945 30.0547 21.8438 29.9219 21.8438 29.7578C21.8438 29.5938 21.8945 29.4648 21.9961 29.3711C22.0977 29.2695 22.2266 29.2188 22.3828 29.2188H28.6289C28.7852 29.2188 28.9141 29.2695 29.0156 29.3711C29.1172 29.4648 29.168 29.5938 29.168 29.7578C29.168 29.9219 29.1172 30.0547 29.0156 30.1562C28.9141 30.2578 28.7852 30.3086 28.6289 30.3086H22.3828ZM16.7344 27.7773C16.5078 27.7773 16.3125 27.6953 16.1484 27.5312C15.9922 27.3672 15.9141 27.168 15.9141 26.9336V24.0977C15.9141 23.8711 15.9922 23.6797 16.1484 23.5234C16.3125 23.3594 16.5078 23.2773 16.7344 23.2773C16.9688 23.2773 17.1641 23.3594 17.3203 23.5234C17.4844 23.6797 17.5664 23.8711 17.5664 24.0977V26.9336C17.5664 27.168 17.4844 27.3672 17.3203 27.5312C17.1641 27.6953 16.9688 27.7773 16.7344 27.7773Z" fill="white"/>
</svg>
