<svg width="197" height="50" viewBox="0 0 197 50" fill="none" xmlns="http://www.w3.org/2000/svg">
<path d="M51.0383 15.156H57.8143V19.072H51.0383V15.156ZM51.3903 24H46.1983V8.6H58.7163V12.516H51.3903V24ZM60.3565 24V8.6H65.5485V24H60.3565ZM68.0479 24V8.6H72.3159L80.1479 17.972H78.1679V8.6H83.2279V24H78.9599L71.1279 14.628H73.1079V24H68.0479ZM84.0576 24L90.7896 8.6H95.8936L102.626 24H97.2576L92.2856 11.064H94.3096L89.3376 24H84.0576ZM88.0616 21.316L89.3816 17.576H96.4656L97.7856 21.316H88.0616ZM103.454 24V8.6H107.722L115.554 17.972H113.574V8.6H118.634V24H114.366L106.534 14.628H108.514V24H103.454ZM129.1 24.352C127.868 24.352 126.724 24.1613 125.668 23.78C124.627 23.384 123.717 22.8267 122.94 22.108C122.177 21.3893 121.583 20.5387 121.158 19.556C120.733 18.5733 120.52 17.488 120.52 16.3C120.52 15.112 120.733 14.0267 121.158 13.044C121.583 12.0613 122.177 11.2107 122.94 10.492C123.717 9.77333 124.627 9.22333 125.668 8.842C126.724 8.446 127.868 8.248 129.1 8.248C130.611 8.248 131.945 8.512 133.104 9.04C134.277 9.568 135.245 10.3307 136.008 11.328L132.73 14.254C132.275 13.682 131.769 13.242 131.212 12.934C130.669 12.6113 130.053 12.45 129.364 12.45C128.821 12.45 128.33 12.538 127.89 12.714C127.45 12.89 127.069 13.1467 126.746 13.484C126.438 13.8213 126.196 14.232 126.02 14.716C125.844 15.1853 125.756 15.7133 125.756 16.3C125.756 16.8867 125.844 17.422 126.02 17.906C126.196 18.3753 126.438 18.7787 126.746 19.116C127.069 19.4533 127.45 19.71 127.89 19.886C128.33 20.062 128.821 20.15 129.364 20.15C130.053 20.15 130.669 19.996 131.212 19.688C131.769 19.3653 132.275 18.918 132.73 18.346L136.008 21.272C135.245 22.2547 134.277 23.0173 133.104 23.56C131.945 24.088 130.611 24.352 129.1 24.352ZM142.259 14.32H149.123V18.06H142.259V14.32ZM142.611 20.084H150.311V24H137.507V8.6H150.025V12.516H142.611V20.084Z" fill="white"/>
<path d="M42.1485 46V30.6H49.5625C50.9999 30.6 52.2392 30.8347 53.2805 31.304C54.3365 31.7733 55.1505 32.448 55.7225 33.328C56.2945 34.1933 56.5805 35.22 56.5805 36.408C56.5805 37.596 56.2945 38.6227 55.7225 39.488C55.1505 40.3533 54.3365 41.028 53.2805 41.512C52.2392 41.9813 50.9999 42.216 49.5625 42.216H45.0305L47.3405 39.994V46H42.1485ZM47.3405 40.566L45.0305 38.212H49.2325C49.9512 38.212 50.4792 38.0507 50.8165 37.728C51.1685 37.4053 51.3445 36.9653 51.3445 36.408C51.3445 35.8507 51.1685 35.4107 50.8165 35.088C50.4792 34.7653 49.9512 34.604 49.2325 34.604H45.0305L47.3405 32.25V40.566ZM58.2833 46V30.6H63.4753V41.974H70.4273V46H58.2833ZM70.4043 46L77.1363 30.6H82.2403L88.9723 46H83.6043L78.6323 33.064H80.6563L75.6843 46H70.4043ZM74.4083 43.316L75.7283 39.576H82.8123L84.1323 43.316H74.4083ZM89.8009 46V30.6H94.0689L101.901 39.972H99.9209V30.6H104.981V46H100.713L92.8809 36.628H94.8609V46H89.8009ZM107.483 46V30.6H111.751L119.583 39.972H117.603V30.6H122.663V46H118.395L110.563 36.628H112.543V46H107.483ZM129.916 36.32H136.78V40.06H129.916V36.32ZM130.268 42.084H137.968V46H125.164V30.6H137.682V34.516H130.268V42.084ZM139.967 46V30.6H147.381C148.818 30.6 150.058 30.8347 151.099 31.304C152.155 31.7733 152.969 32.448 153.541 33.328C154.113 34.1933 154.399 35.22 154.399 36.408C154.399 37.596 154.113 38.6227 153.541 39.488C152.969 40.3387 152.155 40.9913 151.099 41.446C150.058 41.9007 148.818 42.128 147.381 42.128H142.849L145.159 39.994V46H139.967ZM149.185 46L145.401 40.39H150.901L154.729 46H149.185ZM145.159 40.566L142.849 38.212H147.051C147.77 38.212 148.298 38.0507 148.635 37.728C148.987 37.4053 149.163 36.9653 149.163 36.408C149.163 35.8507 148.987 35.4107 148.635 35.088C148.298 34.7653 147.77 34.604 147.051 34.604H142.849L145.159 32.25V40.566Z" fill="white"/>
</svg>
