<svg width="197" height="50" viewBox="0 0 197 50" fill="none" xmlns="http://www.w3.org/2000/svg">
<path d="M38.9426 15.156H45.7186V19.072H38.9426V15.156ZM39.2946 24H34.1026V8.6H46.6206V12.516H39.2946V24ZM48.2608 24V8.6H53.4528V24H48.2608ZM55.9522 24V8.6H60.2202L68.0522 17.972H66.0722V8.6H71.1322V24H66.8642L59.0322 14.628H61.0122V24H55.9522ZM71.9619 24L78.6939 8.6H83.7979L90.5299 24H85.1619L80.1899 11.064H82.2139L77.2419 24H71.9619ZM75.9659 21.316L77.2859 17.576H84.3699L85.6899 21.316H75.9659ZM91.3585 24V8.6H95.6265L103.458 17.972H101.478V8.6H106.538V24H102.27L94.4385 14.628H96.4185V24H91.3585ZM117.004 24.352C115.772 24.352 114.628 24.1613 113.572 23.78C112.531 23.384 111.621 22.8267 110.844 22.108C110.081 21.3893 109.487 20.5387 109.062 19.556C108.637 18.5733 108.424 17.488 108.424 16.3C108.424 15.112 108.637 14.0267 109.062 13.044C109.487 12.0613 110.081 11.2107 110.844 10.492C111.621 9.77333 112.531 9.22333 113.572 8.842C114.628 8.446 115.772 8.248 117.004 8.248C118.515 8.248 119.849 8.512 121.008 9.04C122.181 9.568 123.149 10.3307 123.912 11.328L120.634 14.254C120.179 13.682 119.673 13.242 119.116 12.934C118.573 12.6113 117.957 12.45 117.268 12.45C116.725 12.45 116.234 12.538 115.794 12.714C115.354 12.89 114.973 13.1467 114.65 13.484C114.342 13.8213 114.1 14.232 113.924 14.716C113.748 15.1853 113.66 15.7133 113.66 16.3C113.66 16.8867 113.748 17.422 113.924 17.906C114.1 18.3753 114.342 18.7787 114.65 19.116C114.973 19.4533 115.354 19.71 115.794 19.886C116.234 20.062 116.725 20.15 117.268 20.15C117.957 20.15 118.573 19.996 119.116 19.688C119.673 19.3653 120.179 18.918 120.634 18.346L123.912 21.272C123.149 22.2547 122.181 23.0173 121.008 23.56C119.849 24.088 118.515 24.352 117.004 24.352ZM125.411 24V8.6H130.603V24H125.411ZM131.431 24L138.163 8.6H143.267L149.999 24H144.631L139.659 11.064H141.683L136.711 24H131.431ZM135.435 21.316L136.755 17.576H143.839L145.159 21.316H135.435ZM150.827 24V8.6H156.019V19.974H162.971V24H150.827Z" fill="white"/>
<path d="M42.1485 46V30.6H49.5625C50.9999 30.6 52.2392 30.8347 53.2805 31.304C54.3365 31.7733 55.1505 32.448 55.7225 33.328C56.2945 34.1933 56.5805 35.22 56.5805 36.408C56.5805 37.596 56.2945 38.6227 55.7225 39.488C55.1505 40.3533 54.3365 41.028 53.2805 41.512C52.2392 41.9813 50.9999 42.216 49.5625 42.216H45.0305L47.3405 39.994V46H42.1485ZM47.3405 40.566L45.0305 38.212H49.2325C49.9512 38.212 50.4792 38.0507 50.8165 37.728C51.1685 37.4053 51.3445 36.9653 51.3445 36.408C51.3445 35.8507 51.1685 35.4107 50.8165 35.088C50.4792 34.7653 49.9512 34.604 49.2325 34.604H45.0305L47.3405 32.25V40.566ZM58.2833 46V30.6H63.4753V41.974H70.4273V46H58.2833ZM70.4043 46L77.1363 30.6H82.2403L88.9723 46H83.6043L78.6323 33.064H80.6563L75.6843 46H70.4043ZM74.4083 43.316L75.7283 39.576H82.8123L84.1323 43.316H74.4083ZM89.8009 46V30.6H94.0689L101.901 39.972H99.9209V30.6H104.981V46H100.713L92.8809 36.628H94.8609V46H89.8009ZM107.483 46V30.6H111.751L119.583 39.972H117.603V30.6H122.663V46H118.395L110.563 36.628H112.543V46H107.483ZM129.916 36.32H136.78V40.06H129.916V36.32ZM130.268 42.084H137.968V46H125.164V30.6H137.682V34.516H130.268V42.084ZM139.967 46V30.6H147.381C148.818 30.6 150.058 30.8347 151.099 31.304C152.155 31.7733 152.969 32.448 153.541 33.328C154.113 34.1933 154.399 35.22 154.399 36.408C154.399 37.596 154.113 38.6227 153.541 39.488C152.969 40.3387 152.155 40.9913 151.099 41.446C150.058 41.9007 148.818 42.128 147.381 42.128H142.849L145.159 39.994V46H139.967ZM149.185 46L145.401 40.39H150.901L154.729 46H149.185ZM145.159 40.566L142.849 38.212H147.051C147.77 38.212 148.298 38.0507 148.635 37.728C148.987 37.4053 149.163 36.9653 149.163 36.408C149.163 35.8507 148.987 35.4107 148.635 35.088C148.298 34.7653 147.77 34.604 147.051 34.604H142.849L145.159 32.25V40.566Z" fill="white"/>
</svg>
