<svg width="50" height="50" viewBox="0 0 50 50" fill="none" xmlns="http://www.w3.org/2000/svg">
<circle cx="25" cy="25" r="25" fill="#D90C4A"/>
<path d="M17.9648 34.9023V16.1758C17.9648 15.2617 18.2578 14.5273 18.8438 13.9727C19.4297 13.4102 20.1992 13.1289 21.1523 13.1289H29.8359C30.7969 13.1289 31.5664 13.4102 32.1445 13.9727C32.7305 14.5273 33.0234 15.2617 33.0234 16.1758V34.9023C33.0234 35.8164 32.7305 36.5508 32.1445 37.1055C31.5664 37.668 30.7969 37.9492 29.8359 37.9492H21.1523C20.1992 37.9492 19.4297 37.668 18.8438 37.1055C18.2578 36.5508 17.9648 35.8164 17.9648 34.9023ZM19.8516 33.9766H31.1367V17.1016H19.8516V33.9766ZM25.5117 36.7891C25.7852 36.7891 26.0195 36.6875 26.2148 36.4844C26.418 36.2891 26.5195 36.0508 26.5195 35.7695C26.5195 35.4883 26.418 35.25 26.2148 35.0547C26.0195 34.8594 25.7852 34.7617 25.5117 34.7617C25.2305 34.7617 24.9883 34.8594 24.7852 35.0547C24.5898 35.25 24.4922 35.4883 24.4922 35.7695C24.4922 36.0508 24.5898 36.2891 24.7852 36.4844C24.9883 36.6875 25.2305 36.7891 25.5117 36.7891ZM25.5117 15.8008C25.6992 15.8008 25.8594 15.7344 25.9922 15.6016C26.125 15.4609 26.1914 15.293 26.1914 15.0977C26.1914 14.9102 26.125 14.75 25.9922 14.6172C25.8594 14.4844 25.6992 14.418 25.5117 14.418C25.3164 14.418 25.1484 14.4844 25.0078 14.6172C24.875 14.75 24.8086 14.9102 24.8086 15.0977C24.8086 15.293 24.875 15.4609 25.0078 15.6016C25.1484 15.7344 25.3164 15.8008 25.5117 15.8008Z" fill="white"/>
</svg>
