<svg width="50" height="50" viewBox="0 0 50 50" fill="none" xmlns="http://www.w3.org/2000/svg">
<circle cx="25" cy="25" r="25" fill="#5F3DFF"/>
<path d="M13.9375 31.9844C13.9375 31.5938 14.0508 31.2148 14.2773 30.8477C14.5039 30.4805 14.7852 30.1211 15.1211 29.7695C15.4648 29.418 15.8047 29.0664 16.1406 28.7148C16.3984 28.4492 16.5977 28.1016 16.7383 27.6719C16.8867 27.2422 16.9961 26.7852 17.0664 26.3008C17.1367 25.8164 17.1875 25.3477 17.2188 24.8945C17.2422 23.3555 17.4023 22.0039 17.6992 20.8398C17.9961 19.668 18.4609 18.6914 19.0938 17.9102C19.7344 17.1289 20.5742 16.5508 21.6133 16.1758C21.8086 15.4102 22.2031 14.7617 22.7969 14.2305C23.3984 13.6992 24.1289 13.4336 24.9883 13.4336C25.8555 13.4336 26.5859 13.6992 27.1797 14.2305C27.7812 14.7617 28.1797 15.4102 28.375 16.1758C29.4141 16.5508 30.25 17.1289 30.8828 17.9102C31.5156 18.6914 31.9805 19.668 32.2773 20.8398C32.582 22.0039 32.7461 23.3555 32.7695 24.8945C32.8008 25.3477 32.8516 25.8164 32.9219 26.3008C32.9922 26.7852 33.0977 27.2422 33.2383 27.6719C33.3867 28.1016 33.5898 28.4492 33.8477 28.7148C34.1836 29.0664 34.5195 29.418 34.8555 29.7695C35.1992 30.1211 35.4844 30.4805 35.7109 30.8477C35.9375 31.2148 36.0508 31.5938 36.0508 31.9844C36.0508 32.4141 35.8945 32.7578 35.582 33.0156C35.2695 33.2734 34.8359 33.4023 34.2812 33.4023H29.3359C29.3047 34.1602 29.0977 34.8594 28.7148 35.5C28.3398 36.1484 27.832 36.668 27.1914 37.0586C26.5508 37.4492 25.8164 37.6445 24.9883 37.6445C24.168 37.6445 23.4375 37.4453 22.7969 37.0469C22.1562 36.6562 21.6445 36.1406 21.2617 35.5C20.8867 34.8594 20.6836 34.1602 20.6523 33.4023H15.707C15.1523 33.4023 14.7188 33.2734 14.4062 33.0156C14.0938 32.7578 13.9375 32.4141 13.9375 31.9844ZM16.2109 31.6328H33.7656V31.4922C33.6953 31.3828 33.5781 31.2383 33.4141 31.0586C33.2578 30.8711 33.0742 30.668 32.8633 30.4492C32.6602 30.2305 32.4531 30.0078 32.2422 29.7812C32.0312 29.5469 31.8477 29.2773 31.6914 28.9727C31.5352 28.6602 31.4023 28.3086 31.293 27.918C31.1914 27.5273 31.1055 27.0938 31.0352 26.6172C30.9727 26.1406 30.9297 25.6172 30.9062 25.0469C30.875 23.3438 30.6953 21.9922 30.3672 20.9922C30.0469 19.9922 29.6172 19.25 29.0781 18.7656C28.5469 18.2734 27.9453 17.9336 27.2734 17.7461C27.1328 17.7148 27.0195 17.6602 26.9336 17.582C26.8555 17.4961 26.8164 17.3789 26.8164 17.2305C26.793 16.6211 26.6172 16.125 26.2891 15.7422C25.9688 15.3516 25.5352 15.1562 24.9883 15.1562C24.4492 15.1562 24.0156 15.3516 23.6875 15.7422C23.3672 16.125 23.1953 16.6211 23.1719 17.2305C23.1641 17.3789 23.1211 17.4961 23.043 17.582C22.9648 17.6602 22.8516 17.7148 22.7031 17.7461C22.0312 17.9336 21.4258 18.2734 20.8867 18.7656C20.3555 19.25 19.9297 19.9922 19.6094 20.9922C19.2891 21.9922 19.1133 23.3438 19.082 25.0469C19.0508 25.6172 19.0039 26.1406 18.9414 26.6172C18.8789 27.0938 18.793 27.5273 18.6836 27.918C18.5742 28.3086 18.4414 28.6602 18.2852 28.9727C18.1289 29.2773 17.9453 29.5469 17.7344 29.7812C17.5312 30.0078 17.3242 30.2305 17.1133 30.4492C16.9102 30.668 16.7266 30.8711 16.5625 31.0586C16.3984 31.2383 16.2812 31.3828 16.2109 31.4922V31.6328ZM22.4805 33.4023C22.5195 34.1992 22.7695 34.8281 23.2305 35.2891C23.6992 35.7578 24.2852 35.9922 24.9883 35.9922C25.6992 35.9922 26.2852 35.7578 26.7461 35.2891C27.207 34.8281 27.4609 34.1992 27.5078 33.4023H22.4805Z" fill="white"/>
</svg>
