<svg width="50" height="50" viewBox="0 0 50 50" fill="none" xmlns="http://www.w3.org/2000/svg">
<circle cx="25" cy="25" r="25" fill="#1847ED"/>
<path d="M23.0391 35.8867C22.5781 35.8867 22.1719 35.6602 21.8203 35.207L15.7383 27.4609C15.6211 27.3203 15.5352 27.1797 15.4805 27.0391C15.4258 26.8906 15.3984 26.7461 15.3984 26.6055C15.3984 26.2852 15.5039 26.0234 15.7148 25.8203C15.9258 25.6094 16.1953 25.5039 16.5234 25.5039C16.9141 25.5039 17.25 25.6953 17.5312 26.0781L22.9922 33.2266L33.5156 16.457C33.6562 16.2383 33.8008 16.0859 33.9492 16C34.0977 15.9062 34.2891 15.8594 34.5234 15.8594C34.8438 15.8594 35.1016 15.957 35.2969 16.1523C35.4922 16.3477 35.5898 16.6055 35.5898 16.9258C35.5898 17.0664 35.5664 17.207 35.5195 17.3477C35.4727 17.4805 35.3984 17.6289 35.2969 17.793L24.2227 35.2305C23.9336 35.668 23.5391 35.8867 23.0391 35.8867Z" fill="white"/>
</svg>
