<svg width="50" height="50" viewBox="0 0 50 50" fill="none" xmlns="http://www.w3.org/2000/svg">
<circle cx="25" cy="25" r="25" fill="#E8008B"/>
<path d="M12.3906 36.8125C12.3906 36.5547 12.4805 36.332 12.6602 36.1445C12.8477 35.9648 13.0703 35.875 13.3281 35.875H36.6484C36.9062 35.875 37.1289 35.9648 37.3164 36.1445C37.5039 36.332 37.5977 36.5547 37.5977 36.8125C37.5977 37.0703 37.5039 37.293 37.3164 37.4805C37.1289 37.668 36.9062 37.7617 36.6484 37.7617H13.3281C13.0703 37.7617 12.8477 37.668 12.6602 37.4805C12.4805 37.293 12.3906 37.0703 12.3906 36.8125ZM14.4414 23.3945V23.1133C14.4414 22.8867 14.5039 22.707 14.6289 22.5742C14.7617 22.4414 14.9492 22.375 15.1914 22.375H18.1914C18.4336 22.375 18.6211 22.4414 18.7539 22.5742C18.8867 22.707 18.9531 22.8867 18.9531 23.1133V23.3945C18.9531 23.6289 18.8867 23.8125 18.7539 23.9453C18.6211 24.0781 18.4336 24.1445 18.1914 24.1445H15.1914C14.9492 24.1445 14.7617 24.0781 14.6289 23.9453C14.5039 23.8125 14.4414 23.6289 14.4414 23.3945ZM15.8125 33.4141V23.5117H17.582V33.4141H15.8125ZM14.4414 34.0938V33.8125C14.4414 33.5859 14.5039 33.4062 14.6289 33.2734C14.7617 33.1406 14.9492 33.0742 15.1914 33.0742H18.1914C18.4336 33.0742 18.6211 33.1406 18.7539 33.2734C18.8867 33.4062 18.9531 33.5859 18.9531 33.8125V34.0938C18.9531 34.3359 18.8867 34.5195 18.7539 34.6445C18.6211 34.7773 18.4336 34.8438 18.1914 34.8438H15.1914C14.9492 34.8438 14.7617 34.7773 14.6289 34.6445C14.5039 34.5195 14.4414 34.3359 14.4414 34.0938ZM20.0078 23.3945V23.1133C20.0078 22.8867 20.0742 22.707 20.207 22.5742C20.3398 22.4414 20.5234 22.375 20.7578 22.375H23.7695C24.0039 22.375 24.1875 22.4414 24.3203 22.5742C24.4531 22.707 24.5195 22.8867 24.5195 23.1133V23.3945C24.5195 23.6289 24.4531 23.8125 24.3203 23.9453C24.1875 24.0781 24.0039 24.1445 23.7695 24.1445H20.7578C20.5234 24.1445 20.3398 24.0781 20.207 23.9453C20.0742 23.8125 20.0078 23.6289 20.0078 23.3945ZM21.3906 33.4141V23.5117H23.1602V33.4141H21.3906ZM20.0078 34.0938V33.8125C20.0078 33.5859 20.0742 33.4062 20.207 33.2734C20.3398 33.1406 20.5234 33.0742 20.7578 33.0742H23.7695C24.0039 33.0742 24.1875 33.1406 24.3203 33.2734C24.4531 33.4062 24.5195 33.5859 24.5195 33.8125V34.0938C24.5195 34.3359 24.4531 34.5195 24.3203 34.6445C24.1875 34.7773 24.0039 34.8438 23.7695 34.8438H20.7578C20.5234 34.8438 20.3398 34.7773 20.207 34.6445C20.0742 34.5195 20.0078 34.3359 20.0078 34.0938ZM25.5859 23.3945V23.1133C25.5859 22.8867 25.6523 22.707 25.7852 22.5742C25.918 22.4414 26.1016 22.375 26.3359 22.375H29.3477C29.582 22.375 29.7656 22.4414 29.8984 22.5742C30.0312 22.707 30.0977 22.8867 30.0977 23.1133V23.3945C30.0977 23.6289 30.0312 23.8125 29.8984 23.9453C29.7656 24.0781 29.582 24.1445 29.3477 24.1445H26.3359C26.1016 24.1445 25.918 24.0781 25.7852 23.9453C25.6523 23.8125 25.5859 23.6289 25.5859 23.3945ZM26.9688 33.4141V23.5117H28.7383V33.4141H26.9688ZM25.5859 34.0938V33.8125C25.5859 33.5859 25.6523 33.4062 25.7852 33.2734C25.918 33.1406 26.1016 33.0742 26.3359 33.0742H29.3477C29.582 33.0742 29.7656 33.1406 29.8984 33.2734C30.0312 33.4062 30.0977 33.5859 30.0977 33.8125V34.0938C30.0977 34.3359 30.0312 34.5195 29.8984 34.6445C29.7656 34.7773 29.582 34.8438 29.3477 34.8438H26.3359C26.1016 34.8438 25.918 34.7773 25.7852 34.6445C25.6523 34.5195 25.5859 34.3359 25.5859 34.0938ZM31.1641 23.3945V23.1133C31.1641 22.8867 31.2266 22.707 31.3516 22.5742C31.4844 22.4414 31.6719 22.375 31.9141 22.375H34.9141C35.1562 22.375 35.3398 22.4414 35.4648 22.5742C35.5977 22.707 35.6641 22.8867 35.6641 23.1133V23.3945C35.6641 23.6289 35.5977 23.8125 35.4648 23.9453C35.3398 24.0781 35.1562 24.1445 34.9141 24.1445H31.9141C31.6719 24.1445 31.4844 24.0781 31.3516 23.9453C31.2266 23.8125 31.1641 23.6289 31.1641 23.3945ZM32.5352 33.4141V23.5117H34.3047V33.4141H32.5352ZM31.1641 34.0938V33.8125C31.1641 33.5859 31.2266 33.4062 31.3516 33.2734C31.4844 33.1406 31.6719 33.0742 31.9141 33.0742H34.9141C35.1562 33.0742 35.3398 33.1406 35.4648 33.2734C35.5977 33.4062 35.6641 33.5859 35.6641 33.8125V34.0938C35.6641 34.3359 35.5977 34.5195 35.4648 34.6445C35.3398 34.7773 35.1562 34.8438 34.9141 34.8438H31.9141C31.6719 34.8438 31.4844 34.7773 31.3516 34.6445C31.2266 34.5195 31.1641 34.3359 31.1641 34.0938ZM13.9375 21.3555C13.6094 21.3555 13.3555 21.2578 13.1758 21.0625C13.0039 20.8672 12.918 20.6484 12.918 20.4062C12.918 20.2344 12.9648 20.0742 13.0586 19.9258C13.1602 19.7695 13.3203 19.6289 13.5391 19.5039L23.5469 13.7383C24.0234 13.4648 24.5039 13.3281 24.9883 13.3281C25.4727 13.3281 25.9531 13.4648 26.4297 13.7383L36.4375 19.5039C36.6562 19.6289 36.8125 19.7695 36.9062 19.9258C37.0078 20.0742 37.0586 20.2344 37.0586 20.4062C37.0586 20.6484 36.9688 20.8672 36.7891 21.0625C36.6172 21.2578 36.3672 21.3555 36.0391 21.3555H13.9375Z" fill="white"/>
</svg>
